<svg width="389" height="174" viewBox="0 0 389 174" fill="none" xmlns="http://www.w3.org/2000/svg">
<rect x="0.5" y="0.5" width="388" height="173" rx="47.5" fill="white" stroke="#BBBFBD"/>
<path d="M176.887 101V88.136H150.757V83.982L175.748 52.693H181.443V83.982H188.746V88.136H181.443V101H176.887ZM155.849 83.982H176.887V57.584L155.849 83.982ZM191.492 94.903H197.589V101L193.234 109.576H191.157L194.507 101H191.492V94.903ZM221.511 101.536C211.193 101.536 204.493 96.31 204.493 87.734C204.493 81.972 208.312 77.215 213.873 75.54C209.317 73.597 206.168 69.242 206.168 65.021C206.168 57.249 212.265 52.157 221.511 52.157C230.757 52.157 236.854 57.249 236.854 65.021C236.854 69.242 233.705 73.597 229.149 75.54C234.71 77.215 238.529 81.972 238.529 87.734C238.529 96.31 231.829 101.536 221.511 101.536ZM221.511 97.382C228.881 97.382 233.839 93.831 233.839 87.734C233.839 81.771 228.881 77.818 221.511 77.818C214.141 77.818 209.183 81.771 209.183 87.734C209.183 93.831 214.141 97.382 221.511 97.382ZM221.511 73.865C227.809 73.865 232.164 70.113 232.164 65.155C232.164 59.996 227.943 56.311 221.511 56.311C215.079 56.311 210.858 59.996 210.858 65.155C210.858 70.113 215.213 73.865 221.511 73.865Z" fill="#022011"/>
<path d="M156.764 146.144C155.468 146.144 154.37 145.55 153.938 144.794V146H151.976V132.878H153.938V137.846C154.496 137.054 155.612 136.514 156.782 136.514C159.554 136.514 161.21 138.512 161.21 141.32C161.21 144.128 159.572 146.144 156.764 146.144ZM156.494 144.434C158.132 144.434 159.212 143.174 159.212 141.32C159.212 139.448 158.132 138.224 156.494 138.224C154.892 138.224 153.794 139.448 153.794 141.32C153.794 143.192 154.892 144.434 156.494 144.434ZM164.244 141.788C164.424 143.498 165.45 144.47 166.962 144.47C168.114 144.47 169.032 143.93 169.248 142.976H171.174C170.85 145.01 169.14 146.144 166.908 146.144C163.956 146.144 162.3 143.858 162.3 141.32C162.3 138.8 163.866 136.514 166.818 136.514C169.716 136.514 171.246 138.674 171.228 140.996C171.228 141.356 171.192 141.788 171.192 141.788H164.244ZM166.818 138.062C165.504 138.062 164.622 138.872 164.334 140.24H169.122C169.032 138.98 168.222 138.062 166.818 138.062ZM172.859 146V136.658H174.821V146H172.859ZM172.751 135.182V132.968H174.947V135.182H172.751ZM186.549 146.144C183.201 146.144 180.267 143.948 180.267 139.502C180.267 135.326 183.165 132.878 186.603 132.878C189.591 132.878 191.859 134.534 192.345 137.36H190.077C189.735 135.758 188.403 134.714 186.585 134.714C184.173 134.714 182.391 136.514 182.391 139.502C182.391 142.328 184.011 144.29 186.693 144.29C188.853 144.29 190.293 142.904 190.383 140.978H186.189V139.232H192.345V146H190.437V144.092C189.861 145.298 188.277 146.144 186.549 146.144ZM198.533 146.144C195.779 146.144 193.835 144.11 193.835 141.32C193.835 138.548 195.779 136.514 198.533 136.514C201.233 136.514 203.231 138.53 203.231 141.32C203.231 144.128 201.233 146.144 198.533 146.144ZM198.533 144.434C200.117 144.434 201.215 143.138 201.215 141.32C201.215 139.502 200.099 138.224 198.533 138.224C196.895 138.224 195.833 139.52 195.833 141.32C195.833 143.138 196.895 144.434 198.533 144.434ZM209.009 146.144C206.255 146.144 204.311 144.11 204.311 141.32C204.311 138.548 206.255 136.514 209.009 136.514C211.709 136.514 213.707 138.53 213.707 141.32C213.707 144.128 211.709 146.144 209.009 146.144ZM209.009 144.434C210.593 144.434 211.691 143.138 211.691 141.32C211.691 139.502 210.575 138.224 209.009 138.224C207.371 138.224 206.309 139.52 206.309 141.32C206.309 143.138 207.371 144.434 209.009 144.434ZM219.486 149.51C216.93 149.51 215.292 148.376 215.022 146.252H217.002C217.146 147.278 218.028 147.908 219.486 147.908C221.034 147.908 221.952 147.062 221.952 145.604V144.38C221.502 145.064 220.44 145.55 219.198 145.55C216.462 145.55 214.806 143.678 214.806 141.05C214.806 138.386 216.462 136.514 219.144 136.514C220.332 136.514 221.412 137.036 221.952 137.792V136.658H223.914V145.406C223.914 147.98 222.24 149.51 219.486 149.51ZM219.45 143.858C221.052 143.858 222.078 142.742 222.078 141.05C222.078 139.358 221.052 138.224 219.45 138.224C217.848 138.224 216.822 139.34 216.822 141.05C216.822 142.742 217.848 143.858 219.45 143.858ZM226.015 146V132.878H227.977V146H226.015ZM231.533 141.788C231.713 143.498 232.739 144.47 234.251 144.47C235.403 144.47 236.321 143.93 236.537 142.976H238.463C238.139 145.01 236.429 146.144 234.197 146.144C231.245 146.144 229.589 143.858 229.589 141.32C229.589 138.8 231.155 136.514 234.107 136.514C237.005 136.514 238.535 138.674 238.517 140.996C238.517 141.356 238.481 141.788 238.481 141.788H231.533ZM234.107 138.062C232.793 138.062 231.911 138.872 231.623 140.24H236.411C236.321 138.98 235.511 138.062 234.107 138.062Z" fill="#616A65"/>
<path d="M252.527 41.6976C253.135 39.8735 255.715 39.8735 256.323 41.6976L257.882 46.3787C258.154 47.1956 258.918 47.7467 259.779 47.7467L264.717 47.7467C266.666 47.7467 267.464 50.2511 265.874 51.3784L261.964 54.1494C261.246 54.6585 260.945 55.5776 261.223 56.413L262.737 60.9564C263.347 62.7903 261.259 64.3378 259.682 63.22L255.582 60.3132C254.889 59.8221 253.961 59.8221 253.268 60.3132L249.168 63.22C247.591 64.3378 245.503 62.7903 246.113 60.9564L247.627 56.413C247.905 55.5776 247.604 54.6585 246.886 54.1494L242.976 51.3784C241.386 50.2511 242.184 47.7467 244.133 47.7467L249.071 47.7467C249.932 47.7467 250.696 47.1956 250.968 46.3787L252.527 41.6976Z" fill="#FFC93B"/>
</svg>