<svg width="389" height="174" viewBox="0 0 389 174" fill="none" xmlns="http://www.w3.org/2000/svg">
<rect x="0.5" y="0.5" width="388" height="173" rx="47.5" fill="white" stroke="#BBBFBD"/>
<path d="M173.242 94V81.022H178.102C180.532 81.022 182.116 82.192 182.116 84.352C182.116 85.522 181.468 86.458 180.478 86.89C181.828 87.394 182.71 88.51 182.71 90.184C182.71 92.668 181.036 94 178.318 94H173.242ZM177.958 92.146C179.704 92.146 180.586 91.444 180.586 90.094C180.586 88.762 179.704 88.024 177.958 88.024H175.33V92.146H177.958ZM177.868 86.206C179.29 86.206 180.01 85.594 180.01 84.496C180.01 83.398 179.272 82.768 177.85 82.768H175.33V86.206H177.868ZM194.031 94.144C190.665 94.144 187.659 91.948 187.659 87.502C187.659 83.074 190.719 80.878 194.031 80.878C196.983 80.878 199.323 82.516 199.701 85.432H197.505C197.235 83.776 195.831 82.714 194.013 82.714C191.601 82.714 189.783 84.424 189.783 87.502C189.783 90.598 191.601 92.29 194.013 92.29C195.849 92.29 197.199 91.3 197.505 89.59H199.719C199.233 92.596 196.893 94.144 194.031 94.144ZM205.416 94.144C202.662 94.144 200.718 92.11 200.718 89.32C200.718 86.548 202.662 84.514 205.416 84.514C208.116 84.514 210.114 86.53 210.114 89.32C210.114 92.128 208.116 94.144 205.416 94.144ZM205.416 92.434C207 92.434 208.098 91.138 208.098 89.32C208.098 87.502 206.982 86.224 205.416 86.224C203.778 86.224 202.716 87.52 202.716 89.32C202.716 91.138 203.778 92.434 205.416 92.434ZM217.242 86.44C216.99 86.386 216.684 86.332 216.306 86.332C214.938 86.332 213.678 87.592 213.678 90.508V94H211.716V84.658H213.678V86.44C214.11 85.324 215.37 84.514 216.558 84.514C216.882 84.514 217.062 84.532 217.242 84.568V86.44ZM218.501 97.366V84.658H220.463V85.864C220.967 85.09 222.101 84.514 223.361 84.514C226.097 84.514 227.753 86.53 227.753 89.32C227.753 92.128 226.007 94.144 223.235 94.144C222.119 94.144 221.039 93.64 220.463 92.902V97.366H218.501ZM223.037 92.434C224.657 92.434 225.737 91.192 225.737 89.32C225.737 87.448 224.657 86.224 223.037 86.224C221.417 86.224 220.337 87.448 220.337 89.32C220.337 91.192 221.417 92.434 223.037 92.434ZM232.371 94V92.506L237.771 86.314H232.677V84.658H240.219V86.152L234.873 92.344H240.291V94H232.371ZM243.021 89.788C243.201 91.498 244.227 92.47 245.739 92.47C246.891 92.47 247.809 91.93 248.025 90.976H249.951C249.627 93.01 247.917 94.144 245.685 94.144C242.733 94.144 241.077 91.858 241.077 89.32C241.077 86.8 242.643 84.514 245.595 84.514C248.493 84.514 250.023 86.674 250.005 88.996C250.005 89.356 249.969 89.788 249.969 89.788H243.021ZM245.595 86.062C244.281 86.062 243.399 86.872 243.111 88.24H247.899C247.809 86.98 246.999 86.062 245.595 86.062ZM257.162 86.44C256.91 86.386 256.604 86.332 256.226 86.332C254.858 86.332 253.598 87.592 253.598 90.508V94H251.636V84.658H253.598V86.44C254.03 85.324 255.29 84.514 256.478 84.514C256.802 84.514 256.982 84.532 257.162 84.568V86.44ZM262.308 94.144C260.472 94.144 259.212 93.19 259.212 91.174V86.314H257.556V84.658H259.212V81.868H261.174V84.658H263.442V86.314H261.174V91.012C261.174 91.948 261.714 92.434 262.506 92.434C262.866 92.434 263.19 92.362 263.442 92.29V94C263.172 94.072 262.758 94.144 262.308 94.144ZM264.89 94V84.658H266.852V94H264.89ZM264.782 83.182V80.968H266.978V83.182H264.782ZM269.814 94V86.314H268.158V84.658H269.814V83.704C269.814 81.688 271.11 80.734 272.838 80.734C273.252 80.734 273.666 80.77 274.026 80.86V82.57C273.774 82.48 273.396 82.444 273.144 82.444C272.352 82.444 271.758 82.912 271.758 83.866V84.658H274.026V86.314H271.758V94H269.814ZM275.178 94V84.658H277.14V94H275.178ZM275.07 83.182V80.968H277.248V83.182H275.07ZM278.549 94V92.506L283.949 86.314H278.855V84.658H286.397V86.152L281.051 92.344H286.469V94H278.549ZM287.988 94V84.658H289.95V94H287.988ZM287.88 83.182V80.968H290.076V83.182H287.88ZM293.505 89.788C293.685 91.498 294.711 92.47 296.223 92.47C297.375 92.47 298.293 91.93 298.509 90.976H300.435C300.111 93.01 298.401 94.144 296.169 94.144C293.217 94.144 291.561 91.858 291.561 89.32C291.561 86.8 293.127 84.514 296.079 84.514C298.977 84.514 300.507 86.674 300.489 88.996C300.489 89.356 300.453 89.788 300.453 89.788H293.505ZM296.079 86.062C294.765 86.062 293.883 86.872 293.595 88.24H298.383C298.293 86.98 297.483 86.062 296.079 86.062ZM307.647 86.44C307.395 86.386 307.089 86.332 306.711 86.332C305.343 86.332 304.083 87.592 304.083 90.508V94H302.121V84.658H304.083V86.44C304.515 85.324 305.775 84.514 306.963 84.514C307.287 84.514 307.467 84.532 307.647 84.568V86.44ZM312.792 94.144C310.956 94.144 309.696 93.19 309.696 91.174V86.314H308.04V84.658H309.696V81.868H311.658V84.658H313.926V86.314H311.658V91.012C311.658 91.948 312.198 92.434 312.99 92.434C313.35 92.434 313.674 92.362 313.926 92.29V94C313.656 94.072 313.242 94.144 312.792 94.144Z" fill="#616A65"/>
<path d="M75.8672 58.0249H92.3756C96.4202 58.0249 101.703 58.0249 104.427 59.6762C107.398 61.4926 109.792 64.7126 109.792 69.1711C109.792 73.6295 107.233 77.6752 103.024 79.3264V79.4916C108.636 80.6475 111.69 84.8582 111.69 90.4726C111.69 96.087 106.903 103.518 97.9059 103.518H75.9497V58.0249H75.8672ZM81.8928 77.5926H94.0264C100.877 77.5926 103.684 75.1157 103.684 70.327C103.684 65.5382 99.2266 63.1439 94.0264 63.1439H81.8928V77.5926ZM81.8928 98.3987H97.0805C102.281 98.3987 105.582 95.1788 105.582 90.2249C105.582 85.2711 100.795 82.629 95.6773 82.629H81.8928V98.3987Z" fill="#231F20"/>
<path d="M127.125 80.73C127.125 99.8023 111.607 115.324 92.5397 115.324C73.4725 115.324 57.9546 99.8023 57.9546 80.73C57.9546 61.6577 73.4725 46.1356 92.5397 46.1356C111.607 46.1356 127.125 61.6577 127.125 80.73ZM92.5397 40.9341C70.5009 40.9341 52.6719 58.7679 52.6719 80.8125C52.6719 102.857 70.5009 120.691 92.5397 120.691C114.578 120.691 132.407 102.857 132.407 80.8125C132.407 58.7679 114.578 40.9341 92.5397 40.9341Z" fill="#231F20"/>
<path d="M132.246 129.03H52.7578V134.231H132.246V129.03Z" fill="#231F20"/>
<path d="M129.768 123.25C129.851 123.25 129.933 123.25 130.016 123.25C130.016 123.25 130.181 123.25 130.263 123.25C130.263 123.25 130.429 123.25 130.429 123.085C130.429 123.085 130.429 122.92 130.429 122.837C130.429 122.755 130.429 122.672 130.429 122.59C130.429 122.59 130.346 122.507 130.263 122.425C130.263 122.425 130.181 122.425 130.098 122.425C130.098 122.425 129.933 122.425 129.851 122.425H129.273V123.333H129.686L129.768 123.25ZM130.016 122.012C130.346 122.012 130.594 122.012 130.759 122.177C130.924 122.342 131.006 122.507 131.006 122.755C131.006 123.003 131.006 123.168 130.759 123.333C130.594 123.415 130.429 123.498 130.263 123.58L131.089 124.819H130.594L129.851 123.663H129.355V124.819H128.943V122.012H130.016ZM128.035 124.158C128.117 124.406 128.282 124.654 128.448 124.819C128.613 124.984 128.86 125.149 129.108 125.232C129.355 125.314 129.603 125.397 129.851 125.397C130.098 125.397 130.429 125.397 130.594 125.232C130.841 125.149 131.006 124.984 131.254 124.819C131.419 124.654 131.584 124.406 131.667 124.158C131.749 123.911 131.832 123.663 131.832 123.333C131.832 123.003 131.832 122.755 131.667 122.507C131.584 122.259 131.419 122.012 131.254 121.847C131.089 121.682 130.841 121.516 130.594 121.434C130.346 121.351 130.098 121.269 129.851 121.269C129.603 121.269 129.273 121.269 129.108 121.434C128.86 121.516 128.695 121.682 128.448 121.847C128.282 122.012 128.117 122.259 128.035 122.507C127.952 122.755 127.87 123.003 127.87 123.333C127.87 123.663 127.87 123.911 128.035 124.158ZM127.622 122.425C127.787 122.177 127.952 121.929 128.117 121.681C128.365 121.434 128.613 121.269 128.86 121.186C129.108 121.104 129.438 121.021 129.768 121.021C130.098 121.021 130.429 121.021 130.676 121.186C130.924 121.351 131.171 121.434 131.419 121.681C131.667 121.929 131.832 122.177 131.914 122.425C132.079 122.755 132.079 123.003 132.079 123.333C132.079 123.663 132.079 123.993 131.914 124.241C131.832 124.571 131.584 124.819 131.419 124.984C131.171 125.232 130.924 125.397 130.676 125.479C130.346 125.562 130.098 125.645 129.768 125.645C129.438 125.645 129.108 125.645 128.86 125.479C128.53 125.397 128.282 125.232 128.117 124.984C127.87 124.736 127.705 124.489 127.622 124.241C127.457 123.993 127.457 123.663 127.457 123.333C127.457 123.003 127.457 122.672 127.622 122.425Z" fill="#231F20"/>
<path d="M59.771 144.469C59.6059 143.478 58.698 142.735 57.5424 142.735C55.5614 142.735 54.8185 144.469 54.8185 146.203C54.8185 147.937 55.5614 149.588 57.5424 149.588C59.5234 149.588 59.6885 148.68 59.8535 147.359H61.9996C61.752 149.918 60.0186 151.487 57.5424 151.487C55.0661 151.487 52.5898 149.175 52.5898 146.203C52.5898 143.231 54.4058 140.836 57.5424 140.836C60.679 140.836 61.6695 142.157 61.9171 144.469H59.771Z" fill="#231F20"/>
<path d="M66.6211 143.726C68.9323 143.726 70.4181 145.295 70.4181 147.607C70.4181 149.918 68.9323 151.487 66.6211 151.487C64.31 151.487 62.8242 149.918 62.8242 147.607C62.8242 145.295 64.31 143.726 66.6211 143.726ZM66.6211 149.918C68.0244 149.918 68.4371 148.762 68.4371 147.607C68.4371 146.451 68.0244 145.212 66.6211 145.212C65.2179 145.212 64.8878 146.368 64.8878 147.607C64.8878 148.845 65.3005 149.918 66.6211 149.918Z" fill="#231F20"/>
<path d="M71.6568 143.891H73.5552V145.212C73.8854 144.304 74.8759 143.644 75.8664 143.644C76.8569 143.644 76.1966 143.644 76.2791 143.644V145.543C76.114 145.543 75.7839 145.543 75.5362 145.543C74.0505 145.543 73.5552 146.616 73.5552 147.937V151.239H71.5742V143.891H71.6568Z" fill="#231F20"/>
<path d="M77.188 143.891H79.0865V144.799C79.5817 144.056 80.3246 143.644 81.2326 143.644C83.5437 143.644 84.5342 145.46 84.5342 147.607C84.5342 149.753 83.4612 151.405 81.3151 151.405C79.169 151.405 79.5817 150.992 79.0865 150.331V153.799H77.1055V143.891H77.188ZM82.6358 147.607C82.6358 146.451 82.1405 145.212 80.9024 145.212C79.6643 145.212 79.169 146.368 79.169 147.607C79.169 148.845 79.5817 149.918 80.9024 149.918C82.2231 149.918 82.6358 148.763 82.6358 147.607Z" fill="#231F20"/>
<path d="M89.0743 143.726C91.3855 143.726 92.8712 145.295 92.8712 147.607C92.8712 149.918 91.3855 151.487 89.0743 151.487C86.7631 151.487 85.2773 149.918 85.2773 147.607C85.2773 145.295 86.7631 143.726 89.0743 143.726ZM89.0743 149.918C90.4775 149.918 90.8902 148.762 90.8902 147.607C90.8902 146.451 90.4775 145.212 89.0743 145.212C87.6711 145.212 87.3409 146.368 87.3409 147.607C87.3409 148.845 87.7536 149.918 89.0743 149.918Z" fill="#231F20"/>
<path d="M94.1099 143.891H96.0083V145.212C96.3385 144.304 97.329 143.644 98.3195 143.644C99.31 143.644 98.6497 143.644 98.7322 143.644V145.543C98.5672 145.543 98.237 145.543 97.9894 145.543C96.5036 145.543 96.0083 146.616 96.0083 147.937V151.239H94.0273V143.891H94.1099Z" fill="#231F20"/>
<path d="M99.3922 146.12C99.4747 144.222 101.208 143.644 102.859 143.644C104.51 143.644 106.078 143.974 106.078 145.708V149.506C106.078 150.166 106.078 150.827 106.326 151.157H104.262C104.262 150.909 104.097 150.662 104.097 150.414C103.437 151.074 102.529 151.322 101.621 151.322C100.218 151.322 99.1445 150.662 99.1445 149.093C99.1445 147.524 100.383 147.029 101.621 146.864C102.859 146.698 104.015 146.698 104.015 145.873C104.015 145.047 103.437 144.882 102.694 144.882C101.951 144.882 101.456 145.212 101.373 145.955H99.3922V146.12ZM104.097 147.607C103.767 147.937 103.024 147.937 102.446 148.019C101.786 148.185 101.291 148.35 101.291 149.093C101.291 149.836 101.868 150.001 102.529 150.001C104.097 150.001 104.18 148.763 104.18 148.35V147.607H104.097Z" fill="#231F20"/>
<path d="M110.121 143.891H111.607V145.212H110.121V148.845C110.121 149.506 110.287 149.671 110.947 149.671C111.607 149.671 111.36 149.671 111.607 149.671V151.24C111.277 151.24 110.864 151.24 110.452 151.24C109.214 151.24 108.14 150.992 108.14 149.506V145.212H106.902V143.891H108.14V141.662H110.121V143.891Z" fill="#231F20"/>
<path d="M115.157 142.735H113.176V141.084H115.157V142.735ZM113.176 143.891H115.157V151.239H113.176V143.891Z" fill="#231F20"/>
<path d="M120.273 143.726C122.585 143.726 124.07 145.295 124.07 147.607C124.07 149.918 122.585 151.487 120.273 151.487C117.962 151.487 116.477 149.918 116.477 147.607C116.477 145.295 117.962 143.726 120.273 143.726ZM120.273 149.918C121.677 149.918 122.089 148.762 122.089 147.607C122.089 146.451 121.677 145.212 120.273 145.212C118.87 145.212 118.54 146.368 118.54 147.607C118.54 148.845 118.953 149.918 120.273 149.918Z" fill="#231F20"/>
<path d="M125.391 143.891H127.29V144.882C127.785 144.056 128.693 143.644 129.518 143.644C131.664 143.644 132.16 144.882 132.16 146.698V151.239H130.179V147.111C130.179 145.873 129.848 145.295 128.858 145.295C127.867 145.295 127.29 145.873 127.29 147.359V151.239H125.309V143.891H125.391Z" fill="#231F20"/>
<path d="M58.2056 25.6597H53.1705V23.7607H61.1771V25.4946L55.7293 32.0172H61.3422V33.9161H52.7578V32.1823L58.2056 25.6597Z" fill="#231F20"/>
<path d="M64.1476 32.1824C64.4778 32.5127 64.8905 32.5952 65.4683 32.5952C66.0461 32.5952 66.2112 32.5127 66.5413 32.265C66.8715 32.0998 67.0366 31.8522 67.1191 31.6045H68.9351C68.6874 32.5127 68.1922 33.0906 67.6144 33.5034C67.0366 33.9163 66.2937 34.0814 65.4683 34.0814C64.6429 34.0814 64.3952 33.9988 63.9 33.8337C63.4047 33.6686 63.0746 33.4209 62.7444 33.0081C62.4142 32.6778 62.1666 32.265 62.0015 31.7696C61.8364 31.2742 61.7539 30.7788 61.7539 30.2009C61.7539 29.6229 61.8364 29.1275 62.0015 28.6322C62.1666 28.1368 62.4142 27.7239 62.7444 27.3937C63.0746 27.0634 63.4873 26.8157 63.9 26.5681C64.3952 26.4029 64.8905 26.2378 65.4683 26.2378C66.0461 26.2378 66.6239 26.3204 67.1191 26.5681C67.6144 26.8157 67.9446 27.146 68.2747 27.5588C68.6049 27.9716 68.77 28.467 68.9351 28.9624C69.1001 29.4578 69.1001 30.0357 69.1001 30.6137H63.8175C63.8175 31.2742 63.9825 31.7696 64.3127 32.0173L64.1476 32.1824ZM66.3763 28.3019C66.1286 28.0542 65.7985 27.8891 65.3032 27.8891C64.808 27.8891 64.7254 27.8891 64.4778 28.0542C64.2302 28.1368 64.0651 28.3019 63.9825 28.467C63.8175 28.6322 63.7349 28.7973 63.7349 28.9624C63.7349 29.1275 63.6524 29.2927 63.6524 29.4578H66.9541C66.8715 28.9624 66.7064 28.5496 66.4588 28.3019H66.3763Z" fill="#231F20"/>
<path d="M71.7417 26.568V27.9715C71.8242 27.7239 71.9893 27.5587 72.1544 27.311C72.3195 27.1459 72.4846 26.9808 72.7322 26.8157C72.9798 26.6505 73.1449 26.568 73.3925 26.4854C73.6402 26.4854 73.8878 26.4028 74.1354 26.4028C74.3831 26.4028 74.3831 26.4028 74.5481 26.4028V28.3018C74.4656 28.3018 74.3005 28.3018 74.218 28.3018C74.1354 28.3018 73.9703 28.3018 73.8053 28.3018C73.4751 28.3018 73.1449 28.3018 72.8973 28.4669C72.6497 28.5495 72.402 28.7972 72.3195 28.9623C72.237 29.1274 72.0719 29.4577 71.9893 29.7054C71.9068 29.9531 71.9068 30.2833 71.9068 30.6136V33.9162H69.9258V26.568H71.8242H71.7417Z" fill="#231F20"/>
<path d="M79.9979 26.5681V27.8891H78.5121V31.5219C78.5121 31.8522 78.5121 32.0999 78.6772 32.1825C78.7597 32.265 79.0074 32.3476 79.3375 32.3476C79.6677 32.3476 79.5852 32.3476 79.6677 32.3476C79.7502 32.3476 79.8328 32.3476 79.9979 32.3476V33.9163C79.8328 33.9163 79.6677 33.9163 79.4201 33.9163C79.1724 33.9163 79.0074 33.9163 78.8423 33.9163C78.5121 33.9163 78.2645 33.9163 77.9343 33.9163C77.6867 33.9163 77.4391 33.7512 77.1914 33.6686C76.9438 33.586 76.7787 33.3384 76.6962 33.1732C76.5311 32.9255 76.5311 32.6778 76.5311 32.265V27.8891H75.293V26.5681H76.5311V24.3389H78.5121V26.5681H79.9979Z" fill="#231F20"/>
<path d="M81.3164 25.412V23.7607H83.2974V25.412H81.3164ZM83.2974 26.5679V33.9161H81.3164V26.5679H83.2974Z" fill="#231F20"/>
<path d="M84.4531 27.8889V26.5679H85.6913V25.99C85.6913 25.3295 85.8563 24.8341 86.269 24.4213C86.6818 24.0084 87.2596 23.7607 88.085 23.7607C88.9104 23.7607 88.4151 23.7607 88.6628 23.7607C88.8279 23.7607 88.9929 23.7607 89.158 23.7607V25.2469C88.9104 25.2469 88.6628 25.2469 88.4151 25.2469C88.1675 25.2469 87.9199 25.2469 87.8373 25.412C87.7548 25.5772 87.6723 25.7423 87.6723 26.0725V26.4854H89.0755V27.8064H87.6723V33.8336H85.6913V27.8064H84.4531V27.8889Z" fill="#231F20"/>
<path d="M90.5625 25.412V23.7607H92.5435V25.412H90.5625ZM92.5435 26.5679V33.9161H90.5625V26.5679H92.5435Z" fill="#231F20"/>
<path d="M97.8243 28.054H94.275V26.5679H100.466V28.054L96.6687 32.3474H100.796V33.8335H94.0273V32.3474L97.8243 28.054Z" fill="#231F20"/>
<path d="M101.871 25.412V23.7607H103.852V25.412H101.871ZM103.935 26.5679V33.9161H101.954V26.5679H103.935Z" fill="#231F20"/>
<path d="M107.648 32.1824C107.978 32.5127 108.391 32.5952 108.968 32.5952C109.546 32.5952 109.711 32.5127 110.041 32.265C110.372 32.0998 110.537 31.8522 110.619 31.6045H112.435C112.187 32.5127 111.692 33.0906 111.114 33.5034C110.537 33.9163 109.794 34.0814 108.968 34.0814C108.143 34.0814 107.895 33.9988 107.4 33.8337C106.905 33.6686 106.575 33.4209 106.244 33.0081C105.914 32.6778 105.667 32.265 105.502 31.7696C105.336 31.2742 105.254 30.7788 105.254 30.2009C105.254 29.6229 105.336 29.1275 105.502 28.6322C105.667 28.1368 105.914 27.7239 106.244 27.3937C106.575 27.0634 106.987 26.8157 107.4 26.5681C107.895 26.4029 108.391 26.2378 108.968 26.2378C109.546 26.2378 110.124 26.3204 110.619 26.5681C111.114 26.8157 111.445 27.146 111.775 27.5588C112.105 27.9716 112.27 28.467 112.435 28.9624C112.6 29.4578 112.6 30.0357 112.6 30.6137H107.317C107.317 31.2742 107.483 31.7696 107.813 32.0173L107.648 32.1824ZM109.959 28.3019C109.711 28.0542 109.381 27.8891 108.886 27.8891C108.391 27.8891 108.308 27.8891 108.06 28.0542C107.813 28.1368 107.648 28.3019 107.565 28.467C107.4 28.6322 107.317 28.7973 107.317 28.9624C107.317 29.1275 107.235 29.2927 107.235 29.4578H110.537C110.454 28.9624 110.289 28.5496 110.041 28.3019H109.959Z" fill="#231F20"/>
<path d="M115.574 26.568V27.9715C115.656 27.7239 115.821 27.5587 115.986 27.311C116.152 27.1459 116.317 26.9808 116.564 26.8157C116.812 26.6505 116.977 26.568 117.225 26.4854C117.472 26.4854 117.72 26.4028 117.967 26.4028C118.215 26.4028 118.215 26.4028 118.38 26.4028V28.3018C118.298 28.3018 118.133 28.3018 118.05 28.3018C117.967 28.3018 117.802 28.3018 117.637 28.3018C117.307 28.3018 116.977 28.3018 116.729 28.4669C116.482 28.5495 116.234 28.7972 116.152 28.9623C116.069 29.1274 115.904 29.4577 115.821 29.7054C115.739 29.9531 115.739 30.2833 115.739 30.6136V33.9162H113.758V26.568H115.656H115.574Z" fill="#231F20"/>
<path d="M124.076 26.5681V27.8891H122.59V31.5219C122.59 31.8522 122.59 32.0999 122.755 32.1825C122.838 32.265 123.085 32.3476 123.416 32.3476C123.746 32.3476 123.663 32.3476 123.746 32.3476C123.828 32.3476 123.911 32.3476 124.076 32.3476V33.9163C123.911 33.9163 123.746 33.9163 123.498 33.9163C123.251 33.9163 123.085 33.9163 122.92 33.9163C122.59 33.9163 122.343 33.9163 122.012 33.9163C121.765 33.9163 121.517 33.7512 121.27 33.6686C121.022 33.586 120.857 33.3384 120.774 33.1732C120.609 32.9255 120.609 32.6778 120.609 32.265V27.8891H119.371V26.5681H120.609V24.3389H122.59V26.5681H124.076Z" fill="#231F20"/>
<path d="M127.46 32.1824C127.79 32.5127 128.203 32.5952 128.781 32.5952C129.359 32.5952 129.524 32.5127 129.854 32.265C130.184 32.0998 130.349 31.8522 130.432 31.6045H132.248C132 32.5127 131.505 33.0906 130.927 33.5034C130.349 33.9163 129.606 34.0814 128.781 34.0814C127.955 34.0814 127.708 33.9988 127.212 33.8337C126.717 33.6686 126.387 33.4209 126.057 33.0081C125.727 32.6778 125.479 32.265 125.314 31.7696C125.149 31.2742 125.066 30.7788 125.066 30.2009C125.066 29.6229 125.149 29.1275 125.314 28.6322C125.479 28.1368 125.727 27.7239 126.057 27.3937C126.387 27.0634 126.8 26.8157 127.212 26.5681C127.708 26.4029 128.203 26.2378 128.781 26.2378C129.359 26.2378 129.936 26.3204 130.432 26.5681C130.927 26.8157 131.257 27.146 131.587 27.5588C131.917 27.9716 132.082 28.467 132.248 28.9624C132.413 29.4578 132.413 30.0357 132.413 30.6137H127.13C127.13 31.2742 127.295 31.7696 127.625 32.0173L127.46 32.1824ZM129.771 28.3019C129.524 28.0542 129.194 27.8891 128.698 27.8891C128.203 27.8891 128.12 27.8891 127.873 28.0542C127.625 28.1368 127.46 28.3019 127.378 28.467C127.212 28.6322 127.13 28.7973 127.13 28.9624C127.13 29.1275 127.047 29.2927 127.047 29.4578H130.349C130.267 28.9624 130.101 28.5496 129.854 28.3019H129.771Z" fill="#231F20"/>
</svg>