<svg width="389" height="174" viewBox="0 0 389 174" fill="none" xmlns="http://www.w3.org/2000/svg">
<rect x="0.5" y="0.5" width="388" height="173" rx="47.5" fill="white" stroke="#BBBFBD"/>
<path d="M177.242 93V80.022H182.102C184.532 80.022 186.116 81.192 186.116 83.352C186.116 84.522 185.468 85.458 184.478 85.89C185.828 86.394 186.71 87.51 186.71 89.184C186.71 91.668 185.036 93 182.318 93H177.242ZM181.958 91.146C183.704 91.146 184.586 90.444 184.586 89.094C184.586 87.762 183.704 87.024 181.958 87.024H179.33V91.146H181.958ZM181.868 85.206C183.29 85.206 184.01 84.594 184.01 83.496C184.01 82.398 183.272 81.768 181.85 81.768H179.33V85.206H181.868ZM189.769 88.788C189.949 90.498 190.975 91.47 192.487 91.47C193.639 91.47 194.557 90.93 194.773 89.976H196.699C196.375 92.01 194.665 93.144 192.433 93.144C189.481 93.144 187.825 90.858 187.825 88.32C187.825 85.8 189.391 83.514 192.343 83.514C195.241 83.514 196.771 85.674 196.753 87.996C196.753 88.356 196.717 88.788 196.717 88.788H189.769ZM192.343 85.062C191.029 85.062 190.147 85.872 189.859 87.24H194.647C194.557 85.98 193.747 85.062 192.343 85.062ZM201.714 93.144C199.374 93.144 197.808 91.758 197.718 89.832H199.644C199.698 90.642 200.49 91.452 201.714 91.452C202.74 91.452 203.442 90.966 203.442 90.318C203.442 89.688 202.992 89.382 202.29 89.22L200.742 88.86C199.374 88.554 198.132 87.888 198.132 86.142C198.132 84.684 199.464 83.514 201.534 83.514C203.514 83.514 205.026 84.612 205.26 86.412H203.334C203.226 85.584 202.416 85.116 201.534 85.116C200.688 85.116 200.094 85.512 200.094 86.142C200.094 86.646 200.526 86.97 201.192 87.132L202.74 87.474C204.234 87.798 205.44 88.392 205.44 90.264C205.44 91.884 203.964 93.144 201.714 93.144ZM210.761 93.144C208.925 93.144 207.665 92.19 207.665 90.174V85.314H206.009V83.658H207.665V80.868H209.627V83.658H211.895V85.314H209.627V90.012C209.627 90.948 210.167 91.434 210.959 91.434C211.319 91.434 211.643 91.362 211.895 91.29V93C211.625 93.072 211.211 93.144 210.761 93.144ZM214.519 88.788C214.699 90.498 215.725 91.47 217.237 91.47C218.389 91.47 219.307 90.93 219.523 89.976H221.449C221.125 92.01 219.415 93.144 217.183 93.144C214.231 93.144 212.575 90.858 212.575 88.32C212.575 85.8 214.141 83.514 217.093 83.514C219.991 83.514 221.521 85.674 221.503 87.996C221.503 88.356 221.467 88.788 221.467 88.788H214.519ZM217.093 85.062C215.779 85.062 214.897 85.872 214.609 87.24H219.397C219.307 85.98 218.497 85.062 217.093 85.062ZM228.66 85.44C228.408 85.386 228.102 85.332 227.724 85.332C226.356 85.332 225.096 86.592 225.096 89.508V93H223.134V83.658H225.096V85.44C225.528 84.324 226.788 83.514 227.976 83.514C228.3 83.514 228.48 83.532 228.66 83.568V85.44ZM231.689 93L236.711 80.022H238.925L243.965 93H241.715L240.545 89.904H235.019L233.867 93H231.689ZM235.703 88.086H239.861L237.773 82.578L235.703 88.086ZM245.054 93V83.658H247.016V85.242C247.664 84.18 248.78 83.514 250.112 83.514C252.092 83.514 253.478 84.828 253.478 86.844V93H251.516V87.276C251.516 86.106 250.778 85.278 249.59 85.278C247.988 85.278 247.016 86.646 247.016 88.896V93H245.054ZM260.301 93.144C259.005 93.144 257.907 92.55 257.475 91.794V93H255.513V79.878H257.475V84.846C258.033 84.054 259.149 83.514 260.319 83.514C263.091 83.514 264.747 85.512 264.747 88.32C264.747 91.128 263.109 93.144 260.301 93.144ZM260.031 91.434C261.669 91.434 262.749 90.174 262.749 88.32C262.749 86.448 261.669 85.224 260.031 85.224C258.429 85.224 257.331 86.448 257.331 88.32C257.331 90.192 258.429 91.434 260.031 91.434ZM266.359 93V83.658H268.321V93H266.359ZM266.251 82.182V79.968H268.447V82.182H266.251ZM271.877 88.788C272.057 90.498 273.083 91.47 274.595 91.47C275.747 91.47 276.665 90.93 276.881 89.976H278.807C278.483 92.01 276.773 93.144 274.541 93.144C271.589 93.144 269.933 90.858 269.933 88.32C269.933 85.8 271.499 83.514 274.451 83.514C277.349 83.514 278.879 85.674 278.861 87.996C278.861 88.356 278.825 88.788 278.825 88.788H271.877ZM274.451 85.062C273.137 85.062 272.255 85.872 271.967 87.24H276.755C276.665 85.98 275.855 85.062 274.451 85.062ZM284.167 93.144C282.331 93.144 281.071 92.19 281.071 90.174V85.314H279.415V83.658H281.071V80.868H283.033V83.658H285.301V85.314H283.033V90.012C283.033 90.948 283.573 91.434 284.365 91.434C284.725 91.434 285.049 91.362 285.301 91.29V93C285.031 93.072 284.617 93.144 284.167 93.144ZM287.925 88.788C288.105 90.498 289.131 91.47 290.643 91.47C291.795 91.47 292.713 90.93 292.929 89.976H294.855C294.531 92.01 292.821 93.144 290.589 93.144C287.637 93.144 285.981 90.858 285.981 88.32C285.981 85.8 287.547 83.514 290.499 83.514C293.397 83.514 294.927 85.674 294.909 87.996C294.909 88.356 294.873 88.788 294.873 88.788H287.925ZM290.499 85.062C289.185 85.062 288.303 85.872 288.015 87.24H292.803C292.713 85.98 291.903 85.062 290.499 85.062ZM302.067 85.44C301.815 85.386 301.509 85.332 301.131 85.332C299.763 85.332 298.503 86.592 298.503 89.508V93H296.541V83.658H298.503V85.44C298.935 84.324 300.195 83.514 301.383 83.514C301.707 83.514 301.887 83.532 302.067 83.568V85.44Z" fill="#616A65"/>
<rect x="20" y="14" width="131" height="146" rx="24" fill="#2E4850"/>
<g clip-path="url(#clip0_2_215)">
<path d="M33.6511 27.9672V146H137.724V27.9672H33.6511Z" fill="#FBFBFB"/>
<path d="M32.8898 27.1855V55.9852H138.485V27.1855H32.8898Z" fill="#2E4850"/>
<path d="M33.6511 126.328V146H137.724V126.328H33.6511Z" fill="#EDEDED"/>
<path d="M67.5266 65.6556H66.0026V65.1052H69.6771V65.6556H68.1531V69.5509H67.5266V65.6556Z" fill="#566B72"/>
<path d="M73.5972 69.0005V69.5509H70.3714V65.1052H73.5125V65.6556H71.0064V67.019H73.2331V67.5609H71.0064V69.0005H73.5972Z" fill="#566B72"/>
<path d="M75.0365 69.4493C74.7233 69.3477 74.4777 69.2122 74.2999 69.0428L74.537 68.5517C74.7063 68.7041 74.9265 68.8311 75.1889 68.9243C75.4514 69.0174 75.7223 69.0682 76.0017 69.0682C76.3742 69.0682 76.6452 69.0089 76.8314 68.8819C77.0177 68.7549 77.1024 68.594 77.1024 68.3823C77.1024 68.2299 77.0516 68.1029 76.95 68.0097C76.8484 67.9166 76.7298 67.8404 76.5774 67.7895C76.4335 67.7387 76.2218 67.6795 75.9594 67.6202C75.6207 67.5355 75.3583 67.4593 75.1466 67.3746C74.9434 67.2984 74.7656 67.1714 74.6217 67.002C74.4777 66.8327 74.4015 66.6125 74.4015 66.3246C74.4015 66.0875 74.4608 65.8758 74.5878 65.681C74.7148 65.4863 74.9011 65.3338 75.1551 65.2237C75.4091 65.1137 75.7223 65.0544 76.1033 65.0544C76.3658 65.0544 76.6282 65.0883 76.8822 65.156C77.1362 65.2237 77.3564 65.3254 77.5342 65.4524L77.3225 65.9605C77.1362 65.8419 76.9415 65.7488 76.7298 65.6895C76.5182 65.6302 76.3065 65.5963 76.1033 65.5963C75.7477 65.5963 75.4768 65.6641 75.2905 65.7911C75.1127 65.9266 75.0196 66.0959 75.0196 66.2992C75.0196 66.4516 75.0704 66.5786 75.172 66.6718C75.2736 66.7649 75.4006 66.8411 75.553 66.8919C75.7054 66.9427 75.9086 67.002 76.1626 67.0613C76.5012 67.146 76.7637 67.2222 76.9669 67.3069C77.1701 67.3915 77.3479 67.5101 77.4918 67.6795C77.6358 67.8404 77.712 68.069 77.712 68.3484C77.712 68.5855 77.6442 68.7972 77.5172 68.9835C77.3902 69.1698 77.1955 69.3307 76.9415 69.4408C76.6875 69.5509 76.3658 69.6102 75.9932 69.6102C75.6546 69.6102 75.3328 69.5594 75.0281 69.4577L75.0365 69.4493Z" fill="#566B72"/>
<path d="M79.5916 65.6556H78.0676V65.1052H81.7421V65.6556H80.2181V69.5509H79.5916V65.6556Z" fill="#566B72"/>
<path d="M83.0205 69.0937C82.6903 68.7549 82.5295 68.2723 82.5295 67.6372V65.1052H83.1645V67.6118C83.1645 68.5602 83.5793 69.0428 84.4175 69.0428C84.8239 69.0428 85.1372 68.9243 85.3489 68.6872C85.569 68.4501 85.6706 68.0944 85.6706 67.6118V65.1052H86.2887V67.6372C86.2887 68.2723 86.1193 68.7634 85.7976 69.1021C85.4674 69.4408 85.0017 69.6102 84.4091 69.6102C83.8164 69.6102 83.3507 69.4408 83.029 69.1021L83.0205 69.0937Z" fill="#566B72"/>
<path d="M90.5558 69.5509L89.5991 68.1876C89.4806 68.1876 89.3874 68.196 89.3197 68.196H88.219V69.5509H87.584V65.1052H89.3197C89.8954 65.1052 90.3442 65.2407 90.6828 65.5202C91.013 65.7996 91.1739 66.1722 91.1739 66.6549C91.1739 67.0021 91.0892 67.29 90.9199 67.5355C90.7506 67.7811 90.505 67.9505 90.1918 68.0606L91.2501 69.5509H90.5558ZM90.2172 67.4001C90.4288 67.2307 90.5389 66.9767 90.5389 66.6549C90.5389 66.3331 90.4373 66.0875 90.2172 65.9182C90.0055 65.7488 89.7007 65.6641 89.2943 65.6641H88.219V67.6626H89.2943C89.7007 67.6626 90.0055 67.5779 90.2172 67.4001Z" fill="#566B72"/>
<path d="M93.0196 65.6556H91.4956V65.1052H95.1701V65.6556H93.6461V69.5509H93.0196V65.6556Z" fill="#566B72"/>
<path d="M99.0902 69.0005V69.5509H95.8644V65.1052H99.0055V65.6556H96.4994V67.019H98.7261V67.5609H96.4994V69.0005H99.0902Z" fill="#566B72"/>
<path d="M100.123 65.1052H100.758V69.5509H100.123V65.1052Z" fill="#566B72"/>
<path d="M102.087 65.1052H102.722V69.0005H105.127V69.5509H102.087V65.1052Z" fill="#566B72"/>
<path d="M74.3168 110.688H74.9349V115.134H74.3168V110.688Z" fill="#566B72"/>
<path d="M81.2764 112.103C81.5219 112.348 81.6405 112.712 81.6405 113.195V115.134H81.0393V113.263C81.0393 112.941 80.9631 112.695 80.8192 112.526C80.6753 112.357 80.4636 112.28 80.1842 112.28C79.8794 112.28 79.6423 112.374 79.4645 112.568C79.2867 112.763 79.1936 113.034 79.1936 113.398V115.134H78.5925V113.263C78.5925 112.941 78.5163 112.695 78.3723 112.526C78.2284 112.357 78.0168 112.28 77.7374 112.28C77.4326 112.28 77.1955 112.374 77.0177 112.568C76.8399 112.763 76.7468 113.034 76.7468 113.398V115.134H76.1456V111.764H76.7214V112.263C76.8399 112.086 77.0008 111.959 77.1955 111.866C77.3902 111.772 77.6104 111.73 77.8644 111.73C78.1184 111.73 78.3469 111.781 78.5501 111.891C78.7533 112.001 78.9057 112.153 79.0073 112.357C79.1343 112.162 79.3037 112.009 79.5238 111.899C79.7439 111.789 79.9979 111.73 80.2773 111.73C80.6922 111.73 81.0224 111.857 81.2679 112.103H81.2764Z" fill="#566B72"/>
<path d="M85.0101 111.239H83.52V110.688H87.1268V111.239H85.6367V115.134H85.0186V111.239H85.0101Z" fill="#566B72"/>
<path d="M90.3441 113.652H87.6687C87.7025 113.949 87.8295 114.186 88.0497 114.364C88.2698 114.541 88.5407 114.635 88.8625 114.635C89.2604 114.635 89.5737 114.499 89.8107 114.228L90.1409 114.618C89.9885 114.795 89.8107 114.931 89.5821 115.024C89.362 115.117 89.1165 115.168 88.8371 115.168C88.4899 115.168 88.1767 115.092 87.9057 114.948C87.6348 114.804 87.4316 114.601 87.2792 114.338C87.1268 114.076 87.0591 113.779 87.0591 113.449C87.0591 113.119 87.1268 112.831 87.2707 112.568C87.4147 112.306 87.6094 112.103 87.8634 111.959C88.1174 111.815 88.3968 111.738 88.7101 111.738C89.0233 111.738 89.3112 111.815 89.5567 111.959C89.8023 112.103 89.997 112.306 90.1325 112.568C90.2679 112.831 90.3441 113.136 90.3441 113.474C90.3441 113.517 90.3441 113.584 90.3357 113.661L90.3441 113.652ZM88.0073 112.518C87.8126 112.695 87.7025 112.932 87.6687 113.22H89.7853C89.7515 112.932 89.6414 112.704 89.4467 112.526C89.2519 112.348 89.0149 112.255 88.727 112.255C88.4391 112.255 88.2021 112.348 88.0073 112.526V112.518Z" fill="#566B72"/>
<path d="M91.2246 115.058C90.9791 114.982 90.7844 114.889 90.6404 114.778L90.886 114.296C91.0299 114.406 91.2077 114.491 91.4109 114.55C91.6226 114.618 91.8258 114.643 92.0374 114.643C92.5624 114.643 92.8248 114.491 92.8248 114.186C92.8248 114.084 92.791 114.008 92.7232 113.949C92.6555 113.889 92.5624 113.847 92.4608 113.822C92.3592 113.796 92.2068 113.762 92.012 113.728C91.7496 113.686 91.5294 113.635 91.3601 113.584C91.1908 113.525 91.0468 113.432 90.9283 113.305C90.8098 113.17 90.7505 112.992 90.7505 112.755C90.7505 112.45 90.8775 112.204 91.123 112.018C91.3686 111.832 91.7072 111.738 92.1221 111.738C92.3422 111.738 92.5624 111.764 92.7825 111.823C93.0026 111.882 93.1804 111.95 93.3244 112.043L93.0704 112.526C92.7994 112.348 92.4862 112.263 92.1221 112.263C91.8681 112.263 91.6734 112.306 91.5464 112.39C91.4109 112.475 91.3432 112.585 91.3432 112.729C91.3432 112.839 91.377 112.924 91.4532 112.992C91.5294 113.051 91.6226 113.102 91.7326 113.127C91.8427 113.153 91.9951 113.195 92.1983 113.229C92.4608 113.271 92.6809 113.322 92.8418 113.381C93.0026 113.432 93.1466 113.525 93.2651 113.652C93.3836 113.779 93.4429 113.957 93.4429 114.186C93.4429 114.491 93.3159 114.736 93.0619 114.914C92.8079 115.092 92.4608 115.185 92.0205 115.185C91.7496 115.185 91.4956 115.151 91.2416 115.075L91.2246 115.058Z" fill="#566B72"/>
<path d="M96.0252 114.939C95.9405 115.016 95.8304 115.075 95.7034 115.117C95.5764 115.16 95.441 115.176 95.3055 115.176C94.9753 115.176 94.7129 115.083 94.5351 114.906C94.3573 114.728 94.2641 114.465 94.2641 114.126V112.28H93.7053V111.781H94.2641V111.044H94.8652V111.781H95.8135V112.28H94.8652V114.101C94.8652 114.279 94.9076 114.423 95.0007 114.516C95.0938 114.609 95.2208 114.66 95.3817 114.66C95.568 114.66 95.7204 114.609 95.8474 114.499L96.0336 114.939H96.0252Z" fill="#566B72"/>
<path d="M96.5925 112.484C96.5078 112.399 96.4655 112.297 96.4655 112.17C96.4655 112.043 96.5078 111.942 96.5925 111.865C96.6771 111.789 96.7787 111.738 96.8888 111.738C96.9989 111.738 97.1004 111.781 97.1851 111.857C97.2613 111.942 97.3036 112.043 97.3036 112.17C97.3036 112.297 97.2613 112.399 97.1851 112.484C97.1004 112.568 97.0073 112.611 96.8972 112.611C96.7872 112.611 96.6771 112.568 96.6009 112.484H96.5925ZM96.5925 115.049C96.5078 114.965 96.4655 114.863 96.4655 114.736C96.4655 114.609 96.5078 114.507 96.5925 114.431C96.6771 114.347 96.7787 114.304 96.8888 114.304C96.9989 114.304 97.1004 114.347 97.1851 114.423C97.2613 114.499 97.3036 114.609 97.3036 114.736C97.3036 114.863 97.2613 114.965 97.1851 115.049C97.1004 115.134 97.0073 115.176 96.8972 115.176C96.7872 115.176 96.6771 115.134 96.6009 115.049H96.5925Z" fill="#566B72"/>
<path d="M69.982 118.318V122.764H69.3639V118.869H68.3818V118.318H69.982Z" fill="#566B72"/>
<path d="M74.1645 120.85C74.3 121.028 74.3677 121.248 74.3677 121.502C74.3677 121.773 74.3 122.002 74.156 122.196C74.0121 122.391 73.8174 122.544 73.5549 122.654C73.2924 122.764 72.9876 122.815 72.632 122.815C72.2764 122.815 71.9801 122.764 71.7176 122.654C71.4552 122.552 71.2604 122.4 71.1165 122.196C70.9726 121.993 70.9048 121.765 70.9048 121.502C70.9048 121.24 70.9726 121.028 71.0996 120.85C71.2266 120.672 71.4213 120.528 71.6668 120.427C71.4636 120.325 71.3197 120.198 71.2096 120.037C71.108 119.876 71.0572 119.69 71.0572 119.47C71.0572 119.224 71.125 119.013 71.252 118.826C71.379 118.64 71.5652 118.504 71.8023 118.403C72.0394 118.31 72.3103 118.259 72.6236 118.259C72.9368 118.259 73.2162 118.31 73.4533 118.403C73.6904 118.504 73.8766 118.64 74.0036 118.826C74.1306 119.013 74.1984 119.224 74.1984 119.47C74.1984 119.681 74.1476 119.876 74.0375 120.037C73.9359 120.198 73.775 120.334 73.5803 120.427C73.8258 120.528 74.0206 120.664 74.156 120.85H74.1645ZM73.4448 122.078C73.648 121.934 73.7412 121.731 73.7412 121.485C73.7412 121.24 73.6396 121.045 73.4448 120.901C73.2501 120.757 72.9707 120.689 72.632 120.689C72.2934 120.689 72.014 120.757 71.8192 120.901C71.6245 121.045 71.5229 121.24 71.5229 121.485C71.5229 121.731 71.616 121.934 71.8192 122.078C72.0224 122.222 72.2849 122.298 72.632 122.298C72.9792 122.298 73.2501 122.222 73.4448 122.078ZM71.9378 118.979C71.7684 119.106 71.6838 119.283 71.6838 119.504C71.6838 119.724 71.7684 119.893 71.9378 120.029C72.1071 120.156 72.3357 120.215 72.6405 120.215C72.9453 120.215 73.1824 120.156 73.3517 120.029C73.521 119.902 73.6142 119.724 73.6142 119.504C73.6142 119.283 73.5295 119.106 73.3517 118.979C73.1739 118.852 72.9368 118.784 72.649 118.784C72.3611 118.784 72.124 118.852 71.9547 118.979H71.9378Z" fill="#566B72"/>
<path d="M79.4984 121.655H77.187L76.7044 122.764H76.061L78.0337 118.318H78.6518L80.6329 122.764H79.981L79.4984 121.655ZM79.2783 121.146L78.3385 118.97L77.3987 121.146H79.2783Z" fill="#566B72"/>
<path d="M83.9518 119.741C84.1974 119.986 84.3244 120.35 84.3244 120.833V122.772H83.7232V120.901C83.7232 120.579 83.647 120.325 83.4946 120.164C83.3422 120.003 83.1221 119.919 82.8342 119.919C82.5125 119.919 82.2585 120.012 82.0722 120.206C81.886 120.401 81.7928 120.672 81.7928 121.036V122.772H81.1917V119.402H81.7674V119.91C81.886 119.732 82.0468 119.605 82.2585 119.512C82.4617 119.419 82.6988 119.368 82.9612 119.368C83.3761 119.368 83.7148 119.495 83.9603 119.741H83.9518Z" fill="#566B72"/>
<path d="M87.9311 119.58C88.1851 119.724 88.3799 119.927 88.5238 120.181C88.6677 120.435 88.7355 120.74 88.7355 121.079C88.7355 121.417 88.6677 121.714 88.5238 121.976C88.3799 122.239 88.1851 122.442 87.9311 122.586C87.6771 122.73 87.3893 122.806 87.076 122.806C86.8305 122.806 86.6103 122.755 86.4071 122.662C86.204 122.569 86.0346 122.425 85.8992 122.239V122.772H85.3234V118.056H85.9246V119.91C86.06 119.732 86.2209 119.597 86.4241 119.504C86.6273 119.41 86.8389 119.368 87.076 119.368C87.3977 119.368 87.6856 119.444 87.9311 119.588V119.58ZM87.5925 122.12C87.7618 122.019 87.8888 121.883 87.9904 121.697C88.092 121.519 88.1343 121.307 88.1343 121.079C88.1343 120.85 88.0835 120.638 87.9904 120.461C87.8888 120.283 87.7618 120.139 87.5925 120.046C87.4231 119.952 87.2369 119.902 87.0252 119.902C86.8135 119.902 86.6273 119.952 86.458 120.046C86.2886 120.147 86.1532 120.283 86.06 120.461C85.9669 120.638 85.9161 120.85 85.9161 121.079C85.9161 121.307 85.9669 121.519 86.06 121.697C86.1532 121.875 86.2886 122.019 86.458 122.12C86.6273 122.222 86.8135 122.273 87.0252 122.273C87.2369 122.273 87.4231 122.222 87.5925 122.12Z" fill="#566B72"/>
<path d="M89.5737 118.64C89.4975 118.564 89.4551 118.471 89.4551 118.36C89.4551 118.25 89.4975 118.157 89.5737 118.081C89.6499 118.005 89.743 117.962 89.8615 117.962C89.9801 117.962 90.0732 117.996 90.1494 118.073C90.2256 118.149 90.2679 118.242 90.2679 118.352C90.2679 118.462 90.2256 118.564 90.1494 118.64C90.0732 118.716 89.9716 118.758 89.8615 118.758C89.7515 118.758 89.6499 118.725 89.5737 118.648V118.64ZM89.5652 119.402H90.1663V122.772H89.5652V119.402Z" fill="#566B72"/>
<path d="M94.2726 121.282H91.5972C91.6311 121.578 91.7581 121.815 91.9782 121.993C92.1983 122.171 92.4693 122.264 92.791 122.264C93.1889 122.264 93.5022 122.129 93.7393 121.858L94.0695 122.247C93.9171 122.425 93.7308 122.561 93.5107 122.654C93.2905 122.747 93.045 122.798 92.7656 122.798C92.4185 122.798 92.1052 122.721 91.8343 122.578C91.5633 122.434 91.3601 122.23 91.2077 121.968C91.0638 121.705 90.9876 121.409 90.9876 121.079C90.9876 120.748 91.0553 120.461 91.1993 120.198C91.3432 119.936 91.5379 119.732 91.7919 119.588C92.0459 119.444 92.3253 119.368 92.6386 119.368C92.9519 119.368 93.2313 119.444 93.4853 119.588C93.7308 119.732 93.9255 119.936 94.061 120.198C94.1965 120.461 94.2726 120.765 94.2726 121.104C94.2726 121.146 94.2727 121.214 94.2642 121.29L94.2726 121.282ZM91.9359 120.147C91.7411 120.325 91.6311 120.554 91.5972 120.842H93.7139C93.68 120.562 93.5699 120.325 93.3752 120.147C93.1805 119.969 92.9434 119.876 92.6555 119.876C92.3677 119.876 92.1306 119.961 91.9359 120.147Z" fill="#566B72"/>
<path d="M96.965 122.569C96.8803 122.645 96.7703 122.705 96.6433 122.747C96.5163 122.789 96.3808 122.806 96.2453 122.806C95.9151 122.806 95.6527 122.713 95.4749 122.535C95.2971 122.357 95.2039 122.095 95.2039 121.756V119.91H94.6451V119.41H95.2039V118.674H95.8051V119.41H96.7533V119.91H95.8051V121.731C95.8051 121.909 95.8474 122.052 95.9405 122.154C96.0337 122.247 96.1607 122.298 96.3215 122.298C96.5078 122.298 96.6602 122.247 96.7872 122.137L96.9735 122.578L96.965 122.569Z" fill="#566B72"/>
<path d="M100.275 121.282H97.6C97.6339 121.578 97.7694 121.815 97.981 121.993C98.2012 122.171 98.4721 122.264 98.7938 122.264C99.1833 122.264 99.505 122.129 99.7421 121.858L100.072 122.247C99.9199 122.425 99.7336 122.561 99.5135 122.654C99.2934 122.747 99.0478 122.798 98.7684 122.798C98.4213 122.798 98.108 122.721 97.8456 122.578C97.5746 122.434 97.3714 122.23 97.219 121.968C97.0751 121.705 96.9989 121.409 96.9989 121.079C96.9989 120.748 97.0666 120.461 97.2106 120.198C97.3545 119.935 97.5492 119.732 97.8032 119.588C98.0572 119.444 98.3366 119.368 98.6499 119.368C98.9632 119.368 99.251 119.444 99.4965 119.588C99.7421 119.732 99.9368 119.935 100.072 120.198C100.208 120.461 100.284 120.765 100.284 121.104C100.284 121.146 100.284 121.214 100.275 121.29V121.282ZM97.9387 120.147C97.744 120.325 97.6339 120.554 97.6 120.842H99.7167C99.6828 120.562 99.5727 120.325 99.378 120.147C99.1833 119.969 98.9462 119.876 98.6584 119.876C98.3705 119.876 98.1334 119.961 97.9387 120.147Z" fill="#566B72"/>
<path d="M102.155 119.521C102.358 119.419 102.604 119.368 102.9 119.368V119.961C102.9 119.961 102.824 119.961 102.765 119.961C102.443 119.961 102.189 120.063 102.003 120.257C101.816 120.452 101.723 120.731 101.723 121.096V122.772H101.122V119.402H101.698V119.969C101.799 119.775 101.952 119.631 102.155 119.529V119.521Z" fill="#566B72"/>
<path d="M65.8418 41.5896C65.8418 46.2893 62.0318 50.0999 57.3329 50.0999C52.6339 50.0999 48.8239 46.2893 48.8239 41.5896C48.8239 36.8898 52.6339 33.0792 57.3329 33.0792C62.0318 33.0792 65.8418 36.8898 65.8418 41.5896Z" fill="#D81438"/>
<path d="M59.6612 38.8798L61.1513 37.3894C60.1776 36.5003 58.8907 35.9499 57.4683 35.916V38.702C58.1203 38.7274 58.7129 38.9814 59.1786 39.371L59.6612 38.8883V38.8798Z" fill="white"/>
<path d="M62.9716 41.3271C62.9124 39.9129 62.3282 38.6258 61.4138 37.6689L59.4495 39.6335C59.8644 40.0907 60.1269 40.6835 60.1692 41.3271H62.9716Z" fill="white"/>
<path d="M55.1739 43.3509C54.759 42.8598 54.5135 42.2247 54.5135 41.5303C54.5135 40.0484 55.648 38.8375 57.0873 38.7105V35.9245C54.0647 36.0515 51.6602 38.5411 51.6602 41.5896C51.6602 43.0546 52.219 44.3925 53.1249 45.4002L55.1654 43.3594H55.1739V43.3509Z" fill="white"/>
<path d="M60.1776 41.7251C60.076 43.1985 58.8484 44.3671 57.3498 44.3671C56.6216 44.3671 55.9612 44.0961 55.4617 43.6473L53.4213 45.6881C54.4373 46.6619 55.8173 47.2632 57.3413 47.2632C60.4231 47.2632 62.9377 44.799 63.0139 41.7336H60.1776V41.7251Z" fill="white"/>
<path d="M75.9509 44.3247L78.2115 41.7335L75.9933 39.2609V38.5496H76.7299L78.8634 41.073L80.9886 38.5496H81.6659V39.2101L79.4476 41.7335L81.7082 44.2739V44.9852H80.9716L78.7957 42.411L76.6283 44.9852H75.9509V44.3247Z" fill="white"/>
<path d="M83.5624 42.9021V39.4302H82.4786V38.5495H83.6132L83.6809 36.8898L84.6122 35.9075V38.5411H87.2284V39.4218H84.6122V42.7666C84.6122 43.6727 84.9424 44.2316 85.8314 44.2316C86.7204 44.2316 86.8559 43.6134 86.8897 43.4017H87.584V44.0791C87.3977 44.5364 86.9151 45.1122 85.8229 45.1122C84.3921 45.1122 83.5624 44.3586 83.5624 42.9021Z" fill="white"/>
<path d="M88.7693 38.5496H89.7007L89.7769 39.481C90.1071 38.8459 90.7251 38.4225 91.648 38.4225C92.6216 38.4225 93.2228 38.9137 93.3667 39.6165V40.294H92.6724C92.5962 39.9468 92.3084 39.2947 91.3516 39.2947C90.2595 39.2947 89.8192 40.1924 89.8192 41.2001V44.9937H88.7609V38.558H88.7693V38.5496Z" fill="white"/>
<path d="M93.934 43.1477C93.934 42.0638 94.7044 41.2424 96.6348 41.2424C97.5407 41.2424 98.2604 41.4117 98.2604 41.4117V40.9545C98.2604 39.879 97.7778 39.2947 96.6687 39.2947C95.3564 39.2947 95.0092 40.2262 95.0092 40.2262H94.315V39.5403C94.315 39.5403 94.8653 38.4141 96.6941 38.4141C98.4043 38.4141 99.3103 39.2947 99.3103 40.9799V44.9852H98.4721L98.3535 43.859C98.0064 44.5026 97.3121 45.1122 96.203 45.1122C94.679 45.1122 93.934 44.2485 93.934 43.1477ZM98.2604 42.5803V42.2077C98.2604 42.2077 97.5915 42.0384 96.6348 42.0384C95.3225 42.0384 94.9669 42.5803 94.9669 43.1561C94.9669 43.9098 95.4495 44.2824 96.3723 44.2824C97.6169 44.2824 98.2689 43.3509 98.2689 42.5888H98.2604V42.5803Z" fill="white"/>
<path d="M102.316 35.916H107.641V36.9999H103.671V39.7859H107.269V40.8698H103.671V43.8929H107.641V44.9852H102.316V35.916Z" fill="white"/>
<path d="M111.502 36.9999H108.539V35.916H115.82V36.9999H112.857V44.9852H111.502V36.9999Z" fill="white"/>
<path d="M117.226 35.916H122.551V36.9999H118.589V39.9044H122.551V40.9968H118.589V44.9852H117.226V35.916Z" fill="white"/>
<path d="M68.6696 41.6658C68.6696 39.8621 69.8295 38.3209 72.0647 38.3209C74.2999 38.3209 75.2143 39.5488 75.2143 41.1577C75.2143 41.5557 75.172 41.8013 75.172 41.8013H69.7787C69.8465 43.2747 70.7185 44.13 72.1917 44.13C73.6649 44.13 74.2491 43.3678 74.3338 43.1053H75.0619V43.7828C75.0026 43.9352 74.2914 45.0106 72.1917 45.0106C69.9227 45.0106 68.6781 43.6642 68.6781 41.6573H68.6696V41.6658ZM74.139 41.0307C74.139 39.9129 73.4109 39.2016 72.0817 39.2016C70.7524 39.2016 70.0243 39.9298 69.838 41.0307H74.139Z" fill="white"/>
<path d="M46.6819 84.5901V86.2413H39.7985V77.3499H46.521V79.0012H41.8474V80.9319H45.9791V82.5323H41.8474V84.5901H46.6819Z" fill="#2E4850"/>
<path d="M56.4015 86.2413V80.9065L53.7769 85.3014H52.854L50.2463 81.025V86.2498H48.3159V77.3584H50.0177L53.3451 82.888L56.6217 77.3584H58.3065L58.3319 86.2498H56.4015V86.2413Z" fill="#2E4850"/>
<path d="M66.299 77.7395C66.8832 78.002 67.3234 78.3746 67.6367 78.8573C67.95 79.3399 68.1108 79.9158 68.1108 80.5678C68.1108 81.2198 67.95 81.7872 67.6367 82.2783C67.3234 82.7695 66.8747 83.1421 66.299 83.3961C65.7148 83.6586 65.0375 83.7856 64.2501 83.7856H62.4552V86.2329H60.3978V77.3415H64.2416C65.029 77.3415 65.7148 77.477 66.2905 77.731L66.299 77.7395ZM65.5455 81.711C65.8672 81.4485 66.0281 81.0674 66.0281 80.5763C66.0281 80.0851 65.8672 79.6956 65.5455 79.4246C65.2237 79.1621 64.7496 79.0266 64.1315 79.0266H62.4552V82.109H64.1315C64.7496 82.109 65.2237 81.9735 65.5455 81.711Z" fill="#2E4850"/>
<path d="M71.6245 79.0012V81.3469H75.7392V82.9981H71.6245V86.2414H69.5671V77.35H76.2896V79.0012H71.6245Z" fill="#2E4850"/>
<path d="M84.5191 84.5901V86.2413H77.6357V77.3499H84.3582V79.0012H79.6847V80.9319H83.8164V82.5323H79.6847V84.5901H84.5191Z" fill="#2E4850"/>
<path d="M94.315 77.3499V86.2413H92.2576V82.6001H88.219V86.2413H86.1616V77.3499H88.219V80.8557H92.2576V77.3499H94.315Z" fill="#2E4850"/>
<path d="M96.4062 77.3499H98.4636V84.5647H102.917V86.2413H96.4062V77.3499Z" fill="#2E4850"/>
<path d="M104.941 85.3352C104.238 84.6324 103.882 83.6332 103.882 82.3291V77.3499H105.94V82.2529C105.94 83.8449 106.6 84.6409 107.921 84.6409C108.564 84.6409 109.055 84.4461 109.394 84.065C109.733 83.6755 109.902 83.0743 109.902 82.2529V77.3499H111.934V82.3291C111.934 83.6332 111.578 84.6409 110.876 85.3352C110.173 86.0381 109.182 86.3937 107.912 86.3937C106.642 86.3937 105.652 86.0465 104.949 85.3352H104.941Z" fill="#2E4850"/>
<path d="M121.992 77.3499V86.2413H120.299L115.862 80.8387V86.2413H113.831V77.3499H115.532L119.952 82.7525V77.3499H121.984H121.992Z" fill="#2E4850"/>
<path d="M130.103 81.6517H131.983V85.259C131.5 85.6232 130.942 85.9026 130.307 86.0974C129.672 86.2921 129.028 86.3853 128.385 86.3853C127.462 86.3853 126.632 86.1905 125.895 85.7925C125.159 85.3945 124.583 84.8526 124.16 84.1582C123.736 83.4553 123.533 82.6678 123.533 81.7871C123.533 80.9065 123.745 80.119 124.16 79.4161C124.583 78.7217 125.159 78.1713 125.904 77.7818C126.649 77.3923 127.487 77.189 128.418 77.189C129.197 77.189 129.909 77.3245 130.544 77.5786C131.179 77.8326 131.712 78.2221 132.144 78.7217L130.823 79.9411C130.188 79.2722 129.426 78.9334 128.529 78.9334C127.961 78.9334 127.462 79.052 127.013 79.2891C126.573 79.5262 126.234 79.8649 125.989 80.2968C125.743 80.7287 125.625 81.2198 125.625 81.7787C125.625 82.3376 125.743 82.8202 125.989 83.2521C126.234 83.684 126.573 84.0227 127.013 84.2598C127.445 84.5054 127.944 84.6239 128.503 84.6239C129.096 84.6239 129.629 84.4969 130.103 84.2429V81.6347V81.6517Z" fill="#2E4850"/>
<path d="M68.4156 91.6354L70.2783 97.3683H76.298L71.4297 100.908L73.2924 106.641L68.4156 103.101L63.5388 106.641L65.4015 100.908L60.5332 97.3683H66.553L68.4156 91.6354Z" fill="#F4971A"/>
<path d="M85.6875 91.6354L87.5502 97.3683H93.5699L88.7016 100.908L90.5643 106.641L85.6875 103.101L80.8108 106.641L82.6734 100.908L77.8051 97.3683H83.8249L85.6875 91.6354Z" fill="#F4971A"/>
<path d="M102.959 91.6354L104.822 97.3683H110.842L105.973 100.908L107.836 106.641L102.959 103.101L98.0826 106.641L99.9453 100.908L95.077 97.3683H101.097L102.959 91.6354Z" fill="#F4971A"/>
<path d="M120.231 91.6354L122.094 97.3683H128.114L123.245 100.908L125.108 106.641L120.231 103.101L115.354 106.641L117.217 100.908L112.349 97.3683H118.369L120.231 91.6354Z" fill="#F4971A"/>
<path d="M51.1438 91.6354L53.0064 97.3683H59.0262L54.1579 100.908L56.0205 106.641L51.1438 103.101L46.267 106.641L48.1297 100.908L43.2614 97.3683H49.2811L51.1438 91.6354Z" fill="#F4971A"/>
<path d="M48.3667 138.616L47.41 137.253C47.2915 137.253 47.1983 137.261 47.1306 137.261H46.03V138.616H45.395V134.17H47.1306C47.7063 134.17 48.1551 134.306 48.4853 134.585C48.8155 134.865 48.9763 135.237 48.9763 135.72C48.9763 136.067 48.8917 136.355 48.7223 136.601C48.553 136.846 48.3075 137.015 48.0027 137.126L49.061 138.616H48.3667ZM48.0281 136.465C48.2397 136.296 48.3498 136.042 48.3498 135.72C48.3498 135.398 48.2482 135.152 48.0281 134.983C47.8164 134.814 47.5116 134.729 47.1052 134.729H46.03V136.728H47.1052C47.5116 136.728 47.8164 136.643 48.0281 136.465Z" fill="#566B72"/>
<path d="M50.458 138.43C50.1955 138.286 49.9838 138.074 49.8314 137.82C49.679 137.557 49.6028 137.261 49.6028 136.931C49.6028 136.601 49.679 136.304 49.8314 136.042C49.9838 135.779 50.187 135.576 50.458 135.432C50.7204 135.288 51.0252 135.212 51.3554 135.212C51.6856 135.212 51.9904 135.288 52.2529 135.432C52.5154 135.576 52.727 135.779 52.871 136.042C53.0234 136.304 53.0996 136.601 53.0996 136.931C53.0996 137.261 53.0234 137.557 52.871 137.82C52.7186 138.082 52.5154 138.286 52.2529 138.43C51.9904 138.582 51.6856 138.65 51.3554 138.65C51.0252 138.65 50.7204 138.574 50.458 138.43ZM51.9396 137.972C52.109 137.871 52.2444 137.735 52.346 137.557C52.4476 137.38 52.49 137.168 52.49 136.939C52.49 136.711 52.4392 136.499 52.346 136.321C52.2529 136.143 52.1174 135.999 51.9396 135.906C51.7618 135.813 51.5756 135.762 51.3554 135.762C51.1353 135.762 50.949 135.813 50.7712 135.906C50.5934 135.999 50.4664 136.143 50.3648 136.321C50.2632 136.499 50.2124 136.711 50.2124 136.939C50.2124 137.168 50.2632 137.38 50.3648 137.557C50.4664 137.735 50.6019 137.879 50.7712 137.972C50.9406 138.074 51.1353 138.125 51.3554 138.125C51.5756 138.125 51.7618 138.074 51.9396 137.972Z" fill="#566B72"/>
<path d="M56.6132 135.432C56.8672 135.576 57.0704 135.779 57.2228 136.033C57.3667 136.287 57.4429 136.592 57.4429 136.931C57.4429 137.269 57.3667 137.566 57.2228 137.828C57.0789 138.091 56.8757 138.294 56.6132 138.438C56.3507 138.582 56.0629 138.65 55.7327 138.65C55.4871 138.65 55.2586 138.599 55.0469 138.506C54.8352 138.413 54.6659 138.269 54.5304 138.082V138.616H53.9462V133.899H54.5558V135.754C54.6913 135.576 54.8606 135.44 55.0638 135.347C55.267 135.254 55.4871 135.212 55.7327 135.212C56.0544 135.212 56.3507 135.28 56.6132 135.423V135.432ZM56.2661 137.972C56.4354 137.871 56.5709 137.735 56.6725 137.557C56.7741 137.38 56.8249 137.168 56.8249 136.939C56.8249 136.711 56.7741 136.499 56.6725 136.321C56.5709 136.143 56.4354 135.999 56.2661 135.906C56.0967 135.805 55.902 135.762 55.6819 135.762C55.4617 135.762 55.2755 135.813 55.1062 135.906C54.9368 135.999 54.8014 136.143 54.6998 136.321C54.6066 136.499 54.5558 136.711 54.5558 136.939C54.5558 137.168 54.6066 137.38 54.6998 137.557C54.8014 137.735 54.9284 137.879 55.1062 137.972C55.284 138.074 55.4702 138.125 55.6819 138.125C55.8935 138.125 56.0883 138.074 56.2661 137.972Z" fill="#566B72"/>
<path d="M58.823 138.43C58.5606 138.286 58.3489 138.074 58.1965 137.82C58.0441 137.557 57.9679 137.261 57.9679 136.931C57.9679 136.601 58.0441 136.304 58.1965 136.042C58.3489 135.779 58.5521 135.576 58.823 135.432C59.0855 135.288 59.3903 135.212 59.7205 135.212C60.0507 135.212 60.3555 135.288 60.6179 135.432C60.8804 135.576 61.0921 135.779 61.236 136.042C61.3884 136.304 61.4646 136.601 61.4646 136.931C61.4646 137.261 61.3884 137.557 61.236 137.82C61.0836 138.082 60.8804 138.286 60.6179 138.43C60.3555 138.582 60.0507 138.65 59.7205 138.65C59.3903 138.65 59.0855 138.574 58.823 138.43ZM60.3047 137.972C60.474 137.871 60.6095 137.735 60.7111 137.557C60.8127 137.38 60.855 137.168 60.855 136.939C60.855 136.711 60.8042 136.499 60.7111 136.321C60.6179 136.143 60.4825 135.999 60.3047 135.906C60.1269 135.813 59.9406 135.762 59.7205 135.762C59.5004 135.762 59.3141 135.813 59.1363 135.906C58.9585 135.999 58.8315 136.143 58.7299 136.321C58.6283 136.499 58.5775 136.711 58.5775 136.939C58.5775 137.168 58.6283 137.38 58.7299 137.557C58.8315 137.735 58.967 137.879 59.1363 137.972C59.3056 138.074 59.5004 138.125 59.7205 138.125C59.9406 138.125 60.1269 138.074 60.3047 137.972Z" fill="#566B72"/>
<path d="M62.362 136.609H64.0723V137.134H62.362V136.609Z" fill="#566B72"/>
<path d="M67.8145 137.507H65.4523L64.9613 138.616H64.3093L66.3244 134.17H66.9509L68.9744 138.616H68.3056L67.8145 137.507ZM67.5944 136.999L66.6376 134.822L65.6809 136.999H67.6028H67.5944Z" fill="#566B72"/>
<path d="M72.6828 133.899V138.616H72.0986V138.082C71.9631 138.269 71.7938 138.413 71.5821 138.506C71.3789 138.607 71.1503 138.65 70.8964 138.65C70.5662 138.65 70.2783 138.582 70.0158 138.438C69.7534 138.294 69.5586 138.091 69.4062 137.828C69.2623 137.566 69.1861 137.269 69.1861 136.931C69.1861 136.592 69.2623 136.296 69.4062 136.033C69.5502 135.771 69.7534 135.576 70.0158 135.432C70.2698 135.288 70.5662 135.22 70.8964 135.22C71.1334 135.22 71.362 135.263 71.5652 135.356C71.7684 135.449 71.9377 135.584 72.0732 135.762V133.908H72.6828V133.899ZM71.5313 137.972C71.7091 137.871 71.8446 137.735 71.9377 137.557C72.0393 137.38 72.0817 137.168 72.0817 136.939C72.0817 136.711 72.0309 136.499 71.9377 136.321C71.8446 136.143 71.7091 135.999 71.5313 135.906C71.3535 135.813 71.1673 135.762 70.9556 135.762C70.744 135.762 70.5492 135.813 70.3714 135.906C70.1936 135.999 70.0666 136.143 69.965 136.321C69.8634 136.499 69.8126 136.711 69.8126 136.939C69.8126 137.168 69.8634 137.38 69.965 137.557C70.0666 137.735 70.2021 137.879 70.3714 137.972C70.5408 138.074 70.7355 138.125 70.9556 138.125C71.1757 138.125 71.362 138.074 71.5313 137.972Z" fill="#566B72"/>
<path d="M76.823 135.254L75.3498 138.616H74.7317L73.2585 135.254H73.8935L75.0535 137.955L76.2388 135.254H76.8399H76.823Z" fill="#566B72"/>
<path d="M77.3987 134.492C77.3225 134.416 77.2802 134.323 77.2802 134.213C77.2802 134.102 77.3225 134.009 77.3987 133.933C77.4749 133.857 77.5765 133.815 77.695 133.815C77.8135 133.815 77.9151 133.848 77.9913 133.925C78.0675 134.001 78.1099 134.094 78.1099 134.204C78.1099 134.314 78.0675 134.416 77.9913 134.492C77.9151 134.568 77.8135 134.611 77.695 134.611C77.5765 134.611 77.4749 134.577 77.3987 134.5V134.492ZM77.3902 135.254H77.9998V138.616H77.3902V135.254Z" fill="#566B72"/>
<path d="M79.3291 138.54C79.0751 138.463 78.8803 138.37 78.7364 138.26L78.9904 137.778C79.1343 137.879 79.3206 137.972 79.5322 138.032C79.7439 138.099 79.9556 138.125 80.1757 138.125C80.7091 138.125 80.9716 137.972 80.9716 137.667C80.9716 137.566 80.9377 137.49 80.8615 137.422C80.7853 137.354 80.7006 137.32 80.5906 137.295C80.4805 137.269 80.3281 137.236 80.1334 137.202C79.8624 137.159 79.6423 137.109 79.473 137.058C79.3037 137.007 79.1513 136.914 79.0327 136.778C78.9057 136.651 78.8465 136.465 78.8465 136.228C78.8465 135.923 78.9735 135.678 79.2275 135.491C79.4815 135.305 79.8201 135.212 80.2519 135.212C80.4805 135.212 80.7006 135.237 80.9208 135.296C81.1494 135.356 81.3272 135.423 81.4711 135.517L81.2086 135.999C80.9292 135.821 80.6075 135.728 80.235 135.728C79.9725 135.728 79.7778 135.771 79.6423 135.855C79.5068 135.94 79.4391 136.05 79.4391 136.194C79.4391 136.304 79.473 136.389 79.5492 136.457C79.6254 136.524 79.7185 136.567 79.8286 136.601C79.9386 136.634 80.0995 136.668 80.3027 136.702C80.5736 136.753 80.7938 136.795 80.9631 136.855C81.1324 136.905 81.2764 136.999 81.3949 137.126C81.5134 137.253 81.5727 137.43 81.5727 137.659C81.5727 137.964 81.4457 138.209 81.1832 138.387C80.9208 138.565 80.5652 138.658 80.1164 138.658C79.8455 138.658 79.5746 138.624 79.3206 138.548L79.3291 138.54Z" fill="#566B72"/>
<path d="M82.885 138.43C82.6226 138.286 82.4109 138.074 82.2585 137.82C82.1061 137.557 82.0299 137.261 82.0299 136.931C82.0299 136.601 82.1061 136.304 82.2585 136.042C82.4109 135.779 82.6141 135.576 82.885 135.432C83.1475 135.288 83.4523 135.212 83.7825 135.212C84.1127 135.212 84.4175 135.288 84.68 135.432C84.9424 135.576 85.1541 135.779 85.298 136.042C85.4504 136.304 85.5266 136.601 85.5266 136.931C85.5266 137.261 85.4504 137.557 85.298 137.82C85.1456 138.082 84.9424 138.286 84.68 138.43C84.4175 138.582 84.1127 138.65 83.7825 138.65C83.4523 138.65 83.1475 138.574 82.885 138.43ZM84.3667 137.972C84.536 137.871 84.6715 137.735 84.7731 137.557C84.8747 137.38 84.917 137.168 84.917 136.939C84.917 136.711 84.8662 136.499 84.7731 136.321C84.68 136.143 84.5445 135.999 84.3667 135.906C84.1889 135.813 84.0026 135.762 83.7825 135.762C83.5624 135.762 83.3761 135.813 83.1983 135.906C83.0205 135.999 82.8935 136.143 82.7919 136.321C82.6903 136.499 82.6395 136.711 82.6395 136.939C82.6395 137.168 82.6903 137.38 82.7919 137.557C82.8935 137.735 83.029 137.879 83.1983 137.972C83.3676 138.074 83.5624 138.125 83.7825 138.125C84.0026 138.125 84.1889 138.074 84.3667 137.972Z" fill="#566B72"/>
<path d="M87.4316 135.373C87.6348 135.271 87.8888 135.22 88.1852 135.22V135.813C88.1852 135.813 88.1089 135.813 88.0412 135.813C87.711 135.813 87.4486 135.915 87.2623 136.109C87.076 136.304 86.9829 136.584 86.9829 136.948V138.624H86.3733V135.263H86.9575V135.83C87.0591 135.635 87.22 135.483 87.4316 135.39V135.373Z" fill="#566B72"/>
<path d="M88.8455 136.609H90.5558V137.134H88.8455V136.609Z" fill="#566B72"/>
<path d="M92.2576 134.721H90.7336V134.17H94.4081V134.721H92.8841V138.616H92.2576V134.721Z" fill="#566B72"/>
<path d="M97.4984 137.134H94.7722C94.8061 137.43 94.9415 137.667 95.1617 137.845C95.3818 138.023 95.6612 138.116 95.9914 138.116C96.3893 138.116 96.7195 137.981 96.965 137.71L97.3037 138.108C97.1513 138.286 96.965 138.421 96.7364 138.514C96.5078 138.607 96.2538 138.658 95.9745 138.658C95.6189 138.658 95.3056 138.582 95.0262 138.438C94.7468 138.294 94.5351 138.091 94.3912 137.828C94.2388 137.566 94.1626 137.269 94.1626 136.939C94.1626 136.609 94.2388 136.321 94.3827 136.059C94.5267 135.796 94.7299 135.593 94.9839 135.449C95.2379 135.305 95.5257 135.229 95.8474 135.229C96.1692 135.229 96.457 135.305 96.711 135.449C96.965 135.593 97.1598 135.796 97.3037 136.059C97.4476 136.321 97.5154 136.626 97.5154 136.965C97.5154 137.007 97.5154 137.075 97.4984 137.151V137.134ZM95.1109 135.999C94.9161 136.177 94.7976 136.414 94.7637 136.702H96.9227C96.8888 136.423 96.7703 136.186 96.5756 136.008C96.3808 135.83 96.1353 135.737 95.839 135.737C95.5427 135.737 95.3056 135.83 95.1024 136.008L95.1109 135.999Z" fill="#566B72"/>
<path d="M98.5229 138.54C98.2689 138.463 98.0742 138.37 97.9302 138.26L98.1842 137.778C98.3282 137.879 98.5144 137.972 98.7261 138.032C98.9378 138.099 99.1494 138.125 99.3696 138.125C99.903 138.125 100.174 137.972 100.174 137.667C100.174 137.566 100.14 137.49 100.064 137.422C99.9876 137.354 99.903 137.32 99.7929 137.295C99.6828 137.269 99.5304 137.236 99.3357 137.202C99.0648 137.159 98.8446 137.109 98.6753 137.058C98.506 137.007 98.3536 136.914 98.235 136.778C98.108 136.651 98.0488 136.465 98.0488 136.228C98.0488 135.923 98.1758 135.678 98.4298 135.491C98.6838 135.305 99.0224 135.212 99.4542 135.212C99.6828 135.212 99.903 135.237 100.123 135.296C100.352 135.356 100.529 135.423 100.673 135.517L100.411 135.999C100.132 135.821 99.8098 135.728 99.4373 135.728C99.1748 135.728 98.9801 135.771 98.8446 135.855C98.7092 135.94 98.6414 136.05 98.6414 136.194C98.6414 136.304 98.6753 136.389 98.7515 136.457C98.8277 136.524 98.9208 136.567 99.0309 136.601C99.141 136.634 99.3018 136.668 99.505 136.702C99.776 136.753 99.9961 136.795 100.165 136.855C100.335 136.905 100.479 136.999 100.597 137.126C100.716 137.253 100.775 137.43 100.775 137.659C100.775 137.964 100.648 138.209 100.386 138.387C100.123 138.565 99.7675 138.658 99.3188 138.658C99.0478 138.658 98.7769 138.624 98.5229 138.548V138.54Z" fill="#566B72"/>
<path d="M103.628 138.421C103.535 138.497 103.425 138.557 103.298 138.599C103.171 138.641 103.036 138.658 102.892 138.658C102.553 138.658 102.291 138.565 102.104 138.387C101.918 138.209 101.825 137.947 101.825 137.608V135.762H101.249V135.263H101.825V134.526H102.434V135.263H103.4V135.762H102.434V137.583C102.434 137.769 102.477 137.905 102.57 138.006C102.663 138.108 102.79 138.15 102.959 138.15C103.146 138.15 103.307 138.099 103.434 137.989L103.628 138.43V138.421Z" fill="#566B72"/>
<path d="M106.024 133.484H106.592V139.429H106.024V133.484Z" fill="#566B72"/>
<path d="M110.097 138.396C109.826 138.218 109.606 137.955 109.453 137.608C109.292 137.261 109.216 136.855 109.216 136.389C109.216 135.923 109.292 135.508 109.453 135.169C109.606 134.831 109.826 134.568 110.097 134.382C110.368 134.196 110.681 134.111 111.037 134.111C111.392 134.111 111.697 134.204 111.968 134.382C112.239 134.56 112.459 134.822 112.611 135.169C112.764 135.517 112.848 135.923 112.848 136.389C112.848 136.855 112.772 137.269 112.611 137.608C112.45 137.947 112.239 138.209 111.968 138.396C111.697 138.582 111.384 138.667 111.037 138.667C110.689 138.667 110.376 138.574 110.097 138.396ZM111.883 137.667C112.095 137.38 112.205 136.956 112.205 136.397C112.205 135.838 112.095 135.415 111.883 135.127C111.672 134.839 111.384 134.687 111.028 134.687C110.672 134.687 110.385 134.831 110.164 135.127C109.953 135.415 109.843 135.838 109.843 136.397C109.843 136.956 109.953 137.38 110.164 137.667C110.376 137.955 110.664 138.108 111.028 138.108C111.392 138.108 111.672 137.964 111.883 137.667Z" fill="#566B72"/>
<path d="M116.083 136.44C116.311 136.668 116.43 136.956 116.43 137.303C116.43 137.557 116.362 137.786 116.235 137.989C116.108 138.192 115.922 138.362 115.668 138.48C115.414 138.599 115.109 138.658 114.745 138.658C114.423 138.658 114.127 138.607 113.83 138.514C113.543 138.421 113.297 138.286 113.111 138.116L113.399 137.617C113.551 137.761 113.746 137.879 113.983 137.964C114.22 138.049 114.474 138.091 114.736 138.091C115.067 138.091 115.321 138.023 115.507 137.879C115.693 137.744 115.786 137.549 115.786 137.303C115.786 137.058 115.693 136.863 115.515 136.728C115.338 136.592 115.058 136.524 114.694 136.524H114.339V136.075L115.456 134.704H113.314V134.153H116.252V134.585L115.092 136.025C115.524 136.067 115.862 136.203 116.091 136.431L116.083 136.44Z" fill="#566B72"/>
<path d="M118.648 133.264H119.198L117.107 139.251H116.557L118.648 133.264Z" fill="#566B72"/>
<path d="M122.585 138.065V138.616H119.393V138.184L121.205 136.44C121.425 136.228 121.577 136.042 121.654 135.889C121.73 135.737 121.764 135.576 121.764 135.423C121.764 135.186 121.679 135.009 121.518 134.882C121.357 134.754 121.12 134.687 120.815 134.687C120.324 134.687 119.943 134.848 119.681 135.169L119.249 134.797C119.427 134.585 119.647 134.416 119.935 134.306C120.214 134.187 120.528 134.128 120.875 134.128C121.34 134.128 121.713 134.238 121.984 134.458C122.255 134.678 122.399 134.983 122.399 135.364C122.399 135.601 122.348 135.821 122.246 136.033C122.145 136.245 121.95 136.49 121.671 136.761L120.307 138.065H122.585Z" fill="#566B72"/>
<path d="M125.972 136.304C126.268 136.541 126.42 136.871 126.42 137.286C126.42 137.549 126.361 137.786 126.234 137.998C126.107 138.209 125.921 138.37 125.667 138.489C125.413 138.607 125.108 138.667 124.735 138.667C124.422 138.667 124.117 138.616 123.83 138.523C123.542 138.43 123.296 138.294 123.11 138.125L123.398 137.625C123.55 137.769 123.745 137.888 123.982 137.972C124.219 138.057 124.465 138.099 124.727 138.099C125.057 138.099 125.32 138.032 125.506 137.888C125.692 137.744 125.785 137.549 125.785 137.303C125.785 137.032 125.684 136.838 125.481 136.694C125.277 136.558 124.93 136.49 124.439 136.49H123.432L123.669 134.162H126.175V134.712H124.202L124.084 135.932H124.575C125.21 135.932 125.675 136.05 125.972 136.287V136.304Z" fill="#566B72"/>
</g>
<defs>
<clipPath id="clip0_2_215">
<rect width="108" height="120" fill="white" transform="translate(31.6875 26)"/>
</clipPath>
</defs>
</svg>