<svg width="389" height="174" viewBox="0 0 389 174" fill="none" xmlns="http://www.w3.org/2000/svg">
<rect x="0.5" y="0.5" width="388" height="173" rx="47.5" fill="white" stroke="#BBBFBD"/>
<path d="M91.3146 111V106.779L110.008 90.364C115.636 85.406 118.45 81.118 118.45 76.16C118.45 70.13 114.363 66.311 108.132 66.311C100.561 66.311 96.3396 71.403 97.1436 79.108H92.7216C92.1186 68.656 98.1486 62.157 108.132 62.157C117.244 62.157 123.14 67.651 123.14 76.16C123.14 81.922 120.125 87.282 112.889 93.58L97.6796 106.846H123.14V111H91.3146ZM128.544 111V106.779L147.237 90.364C152.865 85.406 155.679 81.118 155.679 76.16C155.679 70.13 151.592 66.311 145.361 66.311C137.79 66.311 133.569 71.403 134.373 79.108H129.951C129.348 68.656 135.378 62.157 145.361 62.157C154.473 62.157 160.369 67.651 160.369 76.16C160.369 81.922 157.354 87.282 150.118 93.58L134.909 106.846H160.369V111H128.544ZM167.181 104.903H173.345V111H167.181V104.903ZM195.788 111.536C183.795 111.536 177.966 101.553 177.966 86.813C177.966 72.14 183.795 62.157 195.788 62.157C207.714 62.157 213.61 72.073 213.61 86.813C213.61 101.62 207.714 111.536 195.788 111.536ZM195.788 107.382C204.364 107.382 208.92 99.007 208.92 86.813C208.92 74.686 204.364 66.311 195.788 66.311C187.212 66.311 182.656 74.619 182.656 86.813C182.656 99.074 187.212 107.382 195.788 107.382ZM237.859 111.536C225.866 111.536 220.037 101.553 220.037 86.813C220.037 72.14 225.866 62.157 237.859 62.157C249.785 62.157 255.681 72.073 255.681 86.813C255.681 101.62 249.785 111.536 237.859 111.536ZM237.859 107.382C246.435 107.382 250.991 99.007 250.991 86.813C250.991 74.686 246.435 66.311 237.859 66.311C229.283 66.311 224.727 74.619 224.727 86.813C224.727 99.074 229.283 107.382 237.859 107.382ZM279.93 111.536C267.937 111.536 262.108 101.553 262.108 86.813C262.108 72.14 267.937 62.157 279.93 62.157C291.856 62.157 297.752 72.073 297.752 86.813C297.752 101.62 291.856 111.536 279.93 111.536ZM279.93 107.382C288.506 107.382 293.062 99.007 293.062 86.813C293.062 74.686 288.506 66.311 279.93 66.311C271.354 66.311 266.798 74.619 266.798 86.813C266.798 99.074 271.354 107.382 279.93 107.382Z" fill="#022011"/>
<path d="M187.333 31.658V41H185.371V39.416C184.723 40.478 183.607 41.144 182.275 41.144C180.295 41.144 178.909 39.83 178.909 37.814V31.658H180.871V37.382C180.871 38.552 181.609 39.38 182.815 39.38C184.399 39.38 185.371 38.012 185.371 35.762V31.658H187.333ZM180.457 30.182V28.058H182.347V30.182H180.457ZM183.931 30.182V28.058H185.821V30.182H183.931ZM194.246 41.144C192.95 41.144 191.852 40.55 191.42 39.794V41H189.458V27.878H191.42V32.846C191.978 32.054 193.094 31.514 194.264 31.514C197.036 31.514 198.692 33.512 198.692 36.32C198.692 39.128 197.054 41.144 194.246 41.144ZM193.976 39.434C195.614 39.434 196.694 38.174 196.694 36.32C196.694 34.448 195.614 33.224 193.976 33.224C192.374 33.224 191.276 34.448 191.276 36.32C191.276 38.192 192.374 39.434 193.976 39.434ZM201.725 36.788C201.905 38.498 202.931 39.47 204.443 39.47C205.595 39.47 206.513 38.93 206.729 37.976H208.655C208.331 40.01 206.621 41.144 204.389 41.144C201.437 41.144 199.781 38.858 199.781 36.32C199.781 33.8 201.347 31.514 204.299 31.514C207.197 31.514 208.727 33.674 208.709 35.996C208.709 36.356 208.673 36.788 208.673 36.788H201.725ZM204.299 33.062C202.985 33.062 202.103 33.872 201.815 35.24H206.603C206.513 33.98 205.703 33.062 204.299 33.062ZM215.866 33.44C215.614 33.386 215.308 33.332 214.93 33.332C213.562 33.332 212.302 34.592 212.302 37.508V41H210.34V31.658H212.302V33.44C212.734 32.324 213.994 31.514 215.182 31.514C215.506 31.514 215.686 31.532 215.866 31.568V33.44Z" fill="#616A65"/>
<path d="M100.582 146V133.022H102.67V138.872L108.016 133.022H110.824L105.892 138.278L111.328 146H108.718L104.398 139.862L102.67 141.698V146H100.582ZM120.003 136.658V146H118.041V144.416C117.393 145.478 116.277 146.144 114.945 146.144C112.965 146.144 111.579 144.83 111.579 142.814V136.658H113.541V142.382C113.541 143.552 114.279 144.38 115.485 144.38C117.069 144.38 118.041 143.012 118.041 140.762V136.658H120.003ZM122.128 146V136.658H124.09V138.242C124.738 137.18 125.854 136.514 127.186 136.514C129.166 136.514 130.552 137.828 130.552 139.844V146H128.59V140.276C128.59 139.106 127.852 138.278 126.664 138.278C125.062 138.278 124.09 139.646 124.09 141.896V146H122.128ZM136.547 146.144C133.739 146.144 132.083 144.128 132.083 141.32C132.083 138.512 133.757 136.514 136.511 136.514C137.699 136.514 138.797 137.054 139.355 137.846V132.878H141.317V146H139.355V144.794C138.941 145.55 137.825 146.144 136.547 146.144ZM136.799 144.434C138.401 144.434 139.499 143.192 139.499 141.32C139.499 139.448 138.401 138.224 136.799 138.224C135.179 138.224 134.099 139.448 134.099 141.32C134.099 143.174 135.179 144.434 136.799 144.434ZM143.433 146V136.658H145.395V146H143.433ZM143.325 135.182V132.968H145.521V135.182H143.325ZM147.529 146V136.658H149.491V138.242C150.139 137.18 151.255 136.514 152.587 136.514C154.567 136.514 155.953 137.828 155.953 139.844V146H153.991V140.276C153.991 139.106 153.253 138.278 152.065 138.278C150.463 138.278 149.491 139.646 149.491 141.896V146H147.529ZM157.988 146V136.658H159.95V138.242C160.598 137.18 161.714 136.514 163.046 136.514C165.026 136.514 166.412 137.828 166.412 139.844V146H164.45V140.276C164.45 139.106 163.712 138.278 162.524 138.278C160.922 138.278 159.95 139.646 159.95 141.896V146H157.988ZM169.869 141.788C170.049 143.498 171.075 144.47 172.587 144.47C173.739 144.47 174.657 143.93 174.873 142.976H176.799C176.475 145.01 174.765 146.144 172.533 146.144C169.581 146.144 167.925 143.858 167.925 141.32C167.925 138.8 169.491 136.514 172.443 136.514C175.341 136.514 176.871 138.674 176.853 140.996C176.853 141.356 176.817 141.788 176.817 141.788H169.869ZM172.443 138.062C171.129 138.062 170.247 138.872 169.959 140.24H174.747C174.657 138.98 173.847 138.062 172.443 138.062ZM178.484 146V136.658H180.446V138.242C181.094 137.18 182.21 136.514 183.542 136.514C185.522 136.514 186.908 137.828 186.908 139.844V146H184.946V140.276C184.946 139.106 184.208 138.278 183.02 138.278C181.418 138.278 180.446 139.646 180.446 141.896V146H178.484ZM201.021 136.658V146H199.059V144.416C198.411 145.478 197.295 146.144 195.963 146.144C193.983 146.144 192.597 144.83 192.597 142.814V136.658H194.559V142.382C194.559 143.552 195.297 144.38 196.503 144.38C198.087 144.38 199.059 143.012 199.059 140.762V136.658H201.021ZM203.146 146V136.658H205.108V138.242C205.756 137.18 206.872 136.514 208.204 136.514C210.184 136.514 211.57 137.828 211.57 139.844V146H209.608V140.276C209.608 139.106 208.87 138.278 207.682 138.278C206.08 138.278 205.108 139.646 205.108 141.896V146H203.146ZM217.565 146.144C214.757 146.144 213.101 144.128 213.101 141.32C213.101 138.512 214.775 136.514 217.529 136.514C218.717 136.514 219.815 137.054 220.373 137.846V132.878H222.335V146H220.373V144.794C219.959 145.55 218.843 146.144 217.565 146.144ZM217.817 144.434C219.419 144.434 220.517 143.192 220.517 141.32C220.517 139.448 219.419 138.224 217.817 138.224C216.197 138.224 215.117 139.448 215.117 141.32C215.117 143.174 216.197 144.434 217.817 144.434ZM228.375 146V133.022H230.463V138.872L235.809 133.022H238.617L233.685 138.278L239.121 146H236.511L232.191 139.862L230.463 141.698V146H228.375ZM247.796 136.658V146H245.834V144.416C245.186 145.478 244.07 146.144 242.738 146.144C240.758 146.144 239.372 144.83 239.372 142.814V136.658H241.334V142.382C241.334 143.552 242.072 144.38 243.278 144.38C244.862 144.38 245.834 143.012 245.834 140.762V136.658H247.796ZM249.921 146V136.658H251.883V138.242C252.531 137.18 253.647 136.514 254.979 136.514C256.959 136.514 258.345 137.828 258.345 139.844V146H256.383V140.276C256.383 139.106 255.645 138.278 254.457 138.278C252.855 138.278 251.883 139.646 251.883 141.896V146H249.921ZM264.34 146.144C261.532 146.144 259.876 144.128 259.876 141.32C259.876 138.512 261.55 136.514 264.304 136.514C265.492 136.514 266.59 137.054 267.148 137.846V132.878H269.11V146H267.148V144.794C266.734 145.55 265.618 146.144 264.34 146.144ZM264.592 144.434C266.194 144.434 267.292 143.192 267.292 141.32C267.292 139.448 266.194 138.224 264.592 138.224C262.972 138.224 261.892 139.448 261.892 141.32C261.892 143.174 262.972 144.434 264.592 144.434ZM272.648 141.788C272.828 143.498 273.854 144.47 275.366 144.47C276.518 144.47 277.436 143.93 277.652 142.976H279.578C279.254 145.01 277.544 146.144 275.312 146.144C272.36 146.144 270.704 143.858 270.704 141.32C270.704 138.8 272.27 136.514 275.222 136.514C278.12 136.514 279.65 138.674 279.632 140.996C279.632 141.356 279.596 141.788 279.596 141.788H272.648ZM275.222 138.062C273.908 138.062 273.026 138.872 272.738 140.24H277.526C277.436 138.98 276.626 138.062 275.222 138.062ZM281.263 146V136.658H283.225V138.242C283.873 137.18 284.989 136.514 286.321 136.514C288.301 136.514 289.687 137.828 289.687 139.844V146H287.725V140.276C287.725 139.106 286.987 138.278 285.799 138.278C284.197 138.278 283.225 139.646 283.225 141.896V146H281.263Z" fill="#616A65"/>
</svg>