<svg width="389" height="174" viewBox="0 0 389 174" fill="none" xmlns="http://www.w3.org/2000/svg">
<rect x="0.5" y="0.5" width="388" height="173" rx="47.5" fill="white" stroke="#BBBFBD"/>
<path d="M58.4208 111V74.552H48.2368V70.934C57.3488 70.934 59.4258 69.661 59.4258 62.693H62.9768V111H58.4208ZM87.9887 111.536C77.6707 111.536 70.9707 105.774 70.9707 96.729H75.6607C75.6607 103.094 80.4847 107.382 87.9217 107.382C95.1577 107.382 100.049 103.496 100.049 97.935C100.049 91.503 94.6887 88.287 87.3187 88.287C85.7777 88.287 84.2367 88.287 82.8297 88.354V84.468C84.3037 84.535 85.4427 84.535 86.3807 84.535C93.1477 84.535 98.0387 79.711 98.0387 74.753C98.0387 69.728 93.7507 66.311 87.7207 66.311C81.4227 66.311 76.7327 70.599 76.8667 76.16H72.3107C72.2437 67.718 78.5417 62.157 87.7207 62.157C96.6987 62.157 102.729 67.115 102.729 74.686C102.729 80.247 98.4407 85.138 92.7457 86.076C99.9147 86.277 104.739 91.101 104.739 97.868C104.739 106.042 97.9717 111.536 87.9887 111.536ZM128.722 111.536C116.729 111.536 110.9 101.553 110.9 86.813C110.9 72.14 116.729 62.157 128.722 62.157C140.648 62.157 146.544 72.073 146.544 86.813C146.544 101.62 140.648 111.536 128.722 111.536ZM128.722 107.382C137.298 107.382 141.854 99.007 141.854 86.813C141.854 74.686 137.298 66.311 128.722 66.311C120.146 66.311 115.59 74.619 115.59 86.813C115.59 99.074 120.146 107.382 128.722 107.382ZM170.164 111V62.693H175.725L192.207 99.208C194.083 103.429 194.887 106.31 194.887 106.31C194.887 106.31 195.691 103.429 197.567 99.208L213.982 62.693H219.409V111H214.853V77.5C214.853 72.81 215.121 69.795 215.121 69.795C215.121 69.795 214.049 72.676 212.173 76.897L196.83 111H192.877L177.4 76.897C175.524 72.676 174.452 69.795 174.452 69.795C174.452 69.795 174.72 72.81 174.72 77.5V111H170.164ZM229.235 111V76.227H233.456V111H229.235ZM228.699 69.326V62.76H233.992V69.326H228.699ZM257.444 111.536C247.662 111.536 240.694 104.032 240.694 93.58C240.694 83.195 247.662 75.691 257.444 75.691C267.159 75.691 274.261 83.128 274.261 93.58C274.261 104.099 267.159 111.536 257.444 111.536ZM257.444 107.65C264.747 107.65 269.839 101.754 269.839 93.58C269.839 85.406 264.68 79.577 257.444 79.577C250.074 79.577 245.116 85.473 245.116 93.58C245.116 101.754 250.074 107.65 257.444 107.65ZM321.955 111.536C312.91 111.536 304.133 105.841 301.721 93.781H295.423V89.895H301.185C301.118 88.89 301.051 87.885 301.051 86.813C301.051 85.674 301.118 84.602 301.185 83.597H295.423V79.711H301.721C304.2 67.852 312.977 62.157 321.955 62.157C331 62.157 338.571 67.852 339.978 77.969H335.623C334.685 70.532 329.124 66.311 321.955 66.311C314.384 66.311 308.555 71.068 306.478 79.711H327.918L326.444 83.597H305.875C305.808 84.602 305.741 85.674 305.741 86.813C305.741 87.885 305.808 88.89 305.875 89.895H324.166L322.893 93.781H306.478C308.421 102.558 314.317 107.382 321.955 107.382C329.124 107.382 334.484 103.228 335.556 95.925H339.978C338.37 105.774 331.067 111.536 321.955 111.536Z" fill="#022011"/>
<path d="M185.333 31.658V41H183.371V39.416C182.723 40.478 181.607 41.144 180.275 41.144C178.295 41.144 176.909 39.83 176.909 37.814V31.658H178.871V37.382C178.871 38.552 179.609 39.38 180.815 39.38C182.399 39.38 183.371 38.012 183.371 35.762V31.658H185.333ZM178.457 30.182V28.058H180.347V30.182H178.457ZM181.931 30.182V28.058H183.821V30.182H181.931ZM192.246 41.144C190.95 41.144 189.852 40.55 189.42 39.794V41H187.458V27.878H189.42V32.846C189.978 32.054 191.094 31.514 192.264 31.514C195.036 31.514 196.692 33.512 196.692 36.32C196.692 39.128 195.054 41.144 192.246 41.144ZM191.976 39.434C193.614 39.434 194.694 38.174 194.694 36.32C194.694 34.448 193.614 33.224 191.976 33.224C190.374 33.224 189.276 34.448 189.276 36.32C189.276 38.192 190.374 39.434 191.976 39.434ZM199.725 36.788C199.905 38.498 200.931 39.47 202.443 39.47C203.595 39.47 204.513 38.93 204.729 37.976H206.655C206.331 40.01 204.621 41.144 202.389 41.144C199.437 41.144 197.781 38.858 197.781 36.32C197.781 33.8 199.347 31.514 202.299 31.514C205.197 31.514 206.727 33.674 206.709 35.996C206.709 36.356 206.673 36.788 206.673 36.788H199.725ZM202.299 33.062C200.985 33.062 200.103 33.872 199.815 35.24H204.603C204.513 33.98 203.703 33.062 202.299 33.062ZM213.866 33.44C213.614 33.386 213.308 33.332 212.93 33.332C211.562 33.332 210.302 34.592 210.302 37.508V41H208.34V31.658H210.302V33.44C210.734 32.324 211.994 31.514 213.182 31.514C213.506 31.514 213.686 31.532 213.866 31.568V33.44Z" fill="#616A65"/>
<path d="M113.603 146V136.658H115.565V138.242C116.213 137.18 117.329 136.514 118.661 136.514C120.641 136.514 122.027 137.828 122.027 139.844V146H120.065V140.276C120.065 139.106 119.327 138.278 118.139 138.278C116.537 138.278 115.565 139.646 115.565 141.896V146H113.603ZM126.762 146.144C124.872 146.144 123.54 145.046 123.54 143.462C123.54 141.842 124.71 140.834 126.744 140.564L128.742 140.294C129.282 140.222 129.552 139.97 129.552 139.52C129.552 138.71 128.814 138.08 127.59 138.08C126.456 138.08 125.628 138.656 125.538 139.7H123.612C123.828 137.756 125.322 136.514 127.59 136.514C129.984 136.514 131.514 137.882 131.514 139.97V143.678C131.514 144.218 131.748 144.416 132.144 144.416C132.252 144.416 132.36 144.398 132.432 144.38V146C132.234 146.036 131.892 146.108 131.514 146.108C130.542 146.108 129.858 145.64 129.786 144.632C129.336 145.568 128.166 146.144 126.762 146.144ZM127.068 144.614C128.67 144.614 129.606 143.498 129.606 141.896V141.554L127.068 141.968C126.024 142.13 125.502 142.598 125.502 143.39C125.502 144.11 126.132 144.614 127.068 144.614ZM137.834 146.144C135.116 146.144 133.226 144.2 133.226 141.32C133.226 138.458 135.116 136.514 137.834 136.514C140.048 136.514 141.722 137.72 142.046 140.024H140.12C139.922 138.962 139.022 138.224 137.87 138.224C136.268 138.224 135.224 139.448 135.224 141.32C135.224 143.21 136.286 144.434 137.87 144.434C139.04 144.434 139.904 143.75 140.12 142.562H142.046C141.668 144.992 140.03 146.144 137.834 146.144ZM143.556 146V132.878H145.518V138.242C146.184 137.18 147.282 136.514 148.614 136.514C150.612 136.514 151.98 137.828 151.98 139.844V146H150.036V140.276C150.036 139.106 149.28 138.278 148.092 138.278C146.49 138.278 145.518 139.646 145.518 141.896V146H143.556ZM154.033 146V132.878H155.995V138.242C156.661 137.18 157.759 136.514 159.091 136.514C161.089 136.514 162.457 137.828 162.457 139.844V146H160.513V140.276C160.513 139.106 159.757 138.278 158.569 138.278C156.967 138.278 155.995 139.646 155.995 141.896V146H154.033ZM167.209 146.144C165.319 146.144 163.987 145.046 163.987 143.462C163.987 141.842 165.157 140.834 167.191 140.564L169.189 140.294C169.729 140.222 169.999 139.97 169.999 139.52C169.999 138.71 169.261 138.08 168.037 138.08C166.903 138.08 166.075 138.656 165.985 139.7H164.059C164.275 137.756 165.769 136.514 168.037 136.514C170.431 136.514 171.961 137.882 171.961 139.97V143.678C171.961 144.218 172.195 144.416 172.591 144.416C172.699 144.416 172.807 144.398 172.879 144.38V146C172.681 146.036 172.339 146.108 171.961 146.108C170.989 146.108 170.305 145.64 170.233 144.632C169.783 145.568 168.613 146.144 167.209 146.144ZM167.515 144.614C169.117 144.614 170.053 143.498 170.053 141.896V141.554L167.515 141.968C166.471 142.13 165.949 142.598 165.949 143.39C165.949 144.11 166.579 144.614 167.515 144.614ZM174.177 146V132.878H176.139V146H174.177ZM182.089 146.144C180.253 146.144 178.993 145.19 178.993 143.174V138.314H177.337V136.658H178.993V133.868H180.955V136.658H183.223V138.314H180.955V143.012C180.955 143.948 181.495 144.434 182.287 144.434C182.647 144.434 182.971 144.362 183.223 144.29V146C182.953 146.072 182.539 146.144 182.089 146.144ZM184.671 146V136.658H186.633V146H184.671ZM184.563 135.182V132.968H186.759V135.182H184.563ZM192.943 149.51C190.387 149.51 188.749 148.376 188.479 146.252H190.459C190.603 147.278 191.485 147.908 192.943 147.908C194.491 147.908 195.409 147.062 195.409 145.604V144.38C194.959 145.064 193.897 145.55 192.655 145.55C189.919 145.55 188.263 143.678 188.263 141.05C188.263 138.386 189.919 136.514 192.601 136.514C193.789 136.514 194.869 137.036 195.409 137.792V136.658H197.371V145.406C197.371 147.98 195.697 149.51 192.943 149.51ZM192.907 143.858C194.509 143.858 195.535 142.742 195.535 141.05C195.535 139.358 194.509 138.224 192.907 138.224C191.305 138.224 190.279 139.34 190.279 141.05C190.279 142.742 191.305 143.858 192.907 143.858ZM203.216 146V136.658H205.178V146H203.216ZM203.108 135.182V132.968H205.304V135.182H203.108ZM207.312 146V136.658H209.274V138.242C209.922 137.18 211.038 136.514 212.37 136.514C214.35 136.514 215.736 137.828 215.736 139.844V146H213.774V140.276C213.774 139.106 213.036 138.278 211.848 138.278C210.246 138.278 209.274 139.646 209.274 141.896V146H207.312ZM219.973 146L216.553 136.658H218.551L220.927 143.75L223.321 136.658H225.283L221.881 146H219.973ZM227.56 141.788C227.74 143.498 228.766 144.47 230.278 144.47C231.43 144.47 232.348 143.93 232.564 142.976H234.49C234.166 145.01 232.456 146.144 230.224 146.144C227.272 146.144 225.616 143.858 225.616 141.32C225.616 138.8 227.182 136.514 230.134 136.514C233.032 136.514 234.562 138.674 234.544 140.996C234.544 141.356 234.508 141.788 234.508 141.788H227.56ZM230.134 138.062C228.82 138.062 227.938 138.872 227.65 140.24H232.438C232.348 138.98 231.538 138.062 230.134 138.062ZM239.505 146.144C237.165 146.144 235.599 144.758 235.509 142.832H237.435C237.489 143.642 238.281 144.452 239.505 144.452C240.531 144.452 241.233 143.966 241.233 143.318C241.233 142.688 240.783 142.382 240.081 142.22L238.533 141.86C237.165 141.554 235.923 140.888 235.923 139.142C235.923 137.684 237.255 136.514 239.325 136.514C241.305 136.514 242.817 137.612 243.051 139.412H241.125C241.017 138.584 240.207 138.116 239.325 138.116C238.479 138.116 237.885 138.512 237.885 139.142C237.885 139.646 238.317 139.97 238.983 140.132L240.531 140.474C242.025 140.798 243.231 141.392 243.231 143.264C243.231 144.884 241.755 146.144 239.505 146.144ZM248.552 146.144C246.716 146.144 245.456 145.19 245.456 143.174V138.314H243.8V136.658H245.456V133.868H247.418V136.658H249.686V138.314H247.418V143.012C247.418 143.948 247.958 144.434 248.75 144.434C249.11 144.434 249.434 144.362 249.686 144.29V146C249.416 146.072 249.002 146.144 248.552 146.144ZM251.134 146V136.658H253.096V146H251.134ZM251.026 135.182V132.968H253.222V135.182H251.026ZM256.652 141.788C256.832 143.498 257.858 144.47 259.37 144.47C260.522 144.47 261.44 143.93 261.656 142.976H263.582C263.258 145.01 261.548 146.144 259.316 146.144C256.364 146.144 254.708 143.858 254.708 141.32C254.708 138.8 256.274 136.514 259.226 136.514C262.124 136.514 263.654 138.674 263.636 140.996C263.636 141.356 263.6 141.788 263.6 141.788H256.652ZM259.226 138.062C257.912 138.062 257.03 138.872 256.742 140.24H261.53C261.44 138.98 260.63 138.062 259.226 138.062ZM270.793 138.44C270.541 138.386 270.235 138.332 269.857 138.332C268.489 138.332 267.229 139.592 267.229 142.508V146H265.267V136.658H267.229V138.44C267.661 137.324 268.921 136.514 270.109 136.514C270.433 136.514 270.613 136.532 270.793 136.568V138.44ZM275.939 146.144C274.103 146.144 272.843 145.19 272.843 143.174V138.314H271.187V136.658H272.843V133.868H274.805V136.658H277.073V138.314H274.805V143.012C274.805 143.948 275.345 144.434 276.137 144.434C276.497 144.434 276.821 144.362 277.073 144.29V146C276.803 146.072 276.389 146.144 275.939 146.144Z" fill="#616A65"/>
</svg>